<svg width="139" height="180" viewBox="0 0 139 180" fill="none" xmlns="http://www.w3.org/2000/svg">
<path d="M28.999 14.4951L14.5039 0L0.00884905 14.4951L14.5039 28.9901L28.999 14.4951Z" fill="#D1E3E7"/>
<path d="M28.9947 64.671L14.4996 50.1759L0.00457659 64.671L14.4996 79.166L28.9947 64.671Z" fill="#D9EBEF"/>
<path d="M28.9902 114.847L14.4951 100.352L5.99878e-05 114.847L14.4951 129.342L28.9902 114.847Z" fill="#D9EBEF"/>
<path d="M29.0001 165.009L14.505 150.514L0.00994768 165.009L14.505 179.504L29.0001 165.009Z" fill="#D1E3E7"/>
<path d="M66.9474 149.895V128M77.8947 138.947H56H77.8947Z" stroke="#D979A4" stroke-width="3.36842" stroke-miterlimit="10"/>
<path d="M77.9474 83.8947V62M88.8947 72.9474H67H88.8947Z" stroke="#D9CA4A" stroke-width="3.36842" stroke-miterlimit="10"/>
<path d="M127.947 179.895V158M138.895 168.947H117H138.895Z" stroke="#D9CA4A" stroke-width="3.36842" stroke-miterlimit="10"/>
</svg>
