<svg width="376" height="256" viewBox="0 0 376 256" fill="none" xmlns="http://www.w3.org/2000/svg">
<rect x="266" y="74" width="108" height="108" rx="2" stroke="#CAE2E7" stroke-width="4"/>
<rect width="40" height="40" rx="4" fill="#D9CA4A"/>
<rect x="72" y="36" width="40" height="40" rx="4" fill="#D979A4"/>
<rect x="72" y="108" width="40" height="40" rx="4" fill="#D979A4"/>
<rect x="72" y="180" width="40" height="40" rx="4" fill="#D9CA4A"/>
<rect x="144" y="144" width="40" height="40" rx="4" fill="#D9CA4A"/>
<rect x="144" y="72" width="40" height="40" rx="4" fill="#D9CA4A"/>
<rect x="276" y="84" width="40" height="40" rx="4" fill="#D9CA4A"/>
<rect x="324" y="84" width="40" height="40" rx="4" fill="#D979A4"/>
<rect x="276" y="132" width="40" height="40" rx="4" fill="#64C9DA"/>
<rect x="324" y="132" width="40" height="40" rx="4" fill="#D9CA4A"/>
<rect y="72" width="40" height="40" rx="4" fill="#D9CA4A"/>
<rect y="144" width="40" height="40" rx="4" fill="#64C9DA"/>
<rect y="216" width="40" height="40" rx="4" fill="#D979A4"/>
<path d="M15.1004 26.192C14.3111 26.192 13.6444 26.0373 13.1004 25.728C12.5564 25.408 12.1031 24.9333 11.7404 24.304L13.3404 23.12C13.5324 23.472 13.7564 23.7333 14.0124 23.904C14.2684 24.0746 14.5298 24.16 14.7964 24.16C15.2231 24.16 15.5431 24.032 15.7564 23.776C15.9804 23.5093 16.0924 23.0293 16.0924 22.336V15.568H18.4444V22.528C18.4444 23.2 18.3271 23.8133 18.0924 24.368C17.8578 24.9226 17.4898 25.3653 16.9884 25.696C16.4978 26.0266 15.8684 26.192 15.1004 26.192Z" fill="#8F863D"/>
<path d="M24.0411 26.192C23.3584 26.192 22.6757 26.064 21.9931 25.808C21.3211 25.552 20.7184 25.1786 20.1851 24.688L21.5291 23.072C21.9024 23.392 22.3184 23.6533 22.7771 23.856C23.2357 24.0586 23.6784 24.16 24.1051 24.16C24.5957 24.16 24.9584 24.0693 25.1931 23.888C25.4384 23.7066 25.5611 23.4613 25.5611 23.152C25.5611 22.8213 25.4224 22.5813 25.1451 22.432C24.8784 22.272 24.5157 22.096 24.0571 21.904L22.6971 21.328C22.3451 21.1786 22.0091 20.9813 21.6891 20.736C21.3691 20.48 21.1077 20.1653 20.9051 19.792C20.7024 19.4186 20.6011 18.9813 20.6011 18.48C20.6011 17.904 20.7557 17.3813 21.0651 16.912C21.3851 16.4426 21.8224 16.0693 22.3771 15.792C22.9424 15.5146 23.5877 15.376 24.3131 15.376C24.9104 15.376 25.5077 15.4933 26.1051 15.728C26.7024 15.9626 27.2251 16.304 27.6731 16.752L26.4731 18.24C26.1317 17.9733 25.7904 17.7706 25.4491 17.632C25.1077 17.4826 24.7291 17.408 24.3131 17.408C23.9077 17.408 23.5824 17.4933 23.3371 17.664C23.1024 17.824 22.9851 18.0533 22.9851 18.352C22.9851 18.672 23.1344 18.912 23.4331 19.072C23.7424 19.232 24.1211 19.4026 24.5691 19.584L25.9131 20.128C26.5424 20.384 27.0437 20.736 27.4171 21.184C27.7904 21.632 27.9771 22.224 27.9771 22.96C27.9771 23.536 27.8224 24.0693 27.5131 24.56C27.2037 25.0506 26.7557 25.4453 26.1691 25.744C25.5824 26.0426 24.8731 26.192 24.0411 26.192Z" fill="#8F863D"/>
<path d="M78.7911 62.192C78.1084 62.192 77.4257 62.064 76.7431 61.808C76.0711 61.552 75.4684 61.1786 74.9351 60.688L76.2791 59.072C76.6524 59.392 77.0684 59.6533 77.5271 59.856C77.9857 60.0586 78.4284 60.16 78.8551 60.16C79.3457 60.16 79.7084 60.0693 79.9431 59.888C80.1884 59.7066 80.3111 59.4613 80.3111 59.152C80.3111 58.8213 80.1724 58.5813 79.8951 58.432C79.6284 58.272 79.2657 58.096 78.8071 57.904L77.4471 57.328C77.0951 57.1786 76.7591 56.9813 76.4391 56.736C76.1191 56.48 75.8577 56.1653 75.6551 55.792C75.4524 55.4186 75.3511 54.9813 75.3511 54.48C75.3511 53.904 75.5057 53.3813 75.8151 52.912C76.1351 52.4426 76.5724 52.0693 77.1271 51.792C77.6924 51.5146 78.3377 51.376 79.0631 51.376C79.6604 51.376 80.2577 51.4933 80.8551 51.728C81.4524 51.9626 81.9751 52.304 82.4231 52.752L81.2231 54.24C80.8817 53.9733 80.5404 53.7706 80.1991 53.632C79.8577 53.4826 79.4791 53.408 79.0631 53.408C78.6577 53.408 78.3324 53.4933 78.0871 53.664C77.8524 53.824 77.7351 54.0533 77.7351 54.352C77.7351 54.672 77.8844 54.912 78.1831 55.072C78.4924 55.232 78.8711 55.4026 79.3191 55.584L80.6631 56.128C81.2924 56.384 81.7937 56.736 82.1671 57.184C82.5404 57.632 82.7271 58.224 82.7271 58.96C82.7271 59.536 82.5724 60.0693 82.2631 60.56C81.9537 61.0506 81.5057 61.4453 80.9191 61.744C80.3324 62.0426 79.6231 62.192 78.7911 62.192Z" fill="#955471"/>
<path d="M88.8497 62.192C87.975 62.192 87.1697 61.9893 86.4337 61.584C85.6977 61.1786 85.1057 60.5813 84.6577 59.792C84.2204 58.992 84.0017 58.0106 84.0017 56.848C84.0017 55.696 84.2257 54.7146 84.6737 53.904C85.1323 53.0826 85.735 52.4586 86.4817 52.032C87.239 51.5946 88.055 51.376 88.9297 51.376C89.6017 51.376 90.2044 51.5146 90.7377 51.792C91.271 52.0586 91.7137 52.3733 92.0657 52.736L90.8177 54.24C90.551 53.9946 90.2683 53.7973 89.9697 53.648C89.6817 53.488 89.351 53.408 88.9777 53.408C88.5084 53.408 88.0764 53.5413 87.6817 53.808C87.2977 54.0746 86.9884 54.4586 86.7537 54.96C86.5297 55.4613 86.4177 56.064 86.4177 56.768C86.4177 57.8346 86.647 58.6666 87.1057 59.264C87.5643 59.8613 88.1777 60.16 88.9457 60.16C89.3724 60.16 89.751 60.064 90.0817 59.872C90.423 59.68 90.7217 59.4506 90.9777 59.184L92.2257 60.656C91.351 61.68 90.2257 62.192 88.8497 62.192Z" fill="#955471"/>
<path d="M96.5411 62.192C95.8584 62.192 95.1757 62.064 94.4931 61.808C93.8211 61.552 93.2184 61.1786 92.6851 60.688L94.0291 59.072C94.4024 59.392 94.8184 59.6533 95.2771 59.856C95.7357 60.0586 96.1784 60.16 96.6051 60.16C97.0957 60.16 97.4584 60.0693 97.6931 59.888C97.9384 59.7066 98.0611 59.4613 98.0611 59.152C98.0611 58.8213 97.9224 58.5813 97.6451 58.432C97.3784 58.272 97.0157 58.096 96.5571 57.904L95.1971 57.328C94.8451 57.1786 94.5091 56.9813 94.1891 56.736C93.8691 56.48 93.6077 56.1653 93.4051 55.792C93.2024 55.4186 93.1011 54.9813 93.1011 54.48C93.1011 53.904 93.2557 53.3813 93.5651 52.912C93.8851 52.4426 94.3224 52.0693 94.8771 51.792C95.4424 51.5146 96.0877 51.376 96.8131 51.376C97.4104 51.376 98.0077 51.4933 98.6051 51.728C99.2024 51.9626 99.7251 52.304 100.173 52.752L98.9731 54.24C98.6317 53.9733 98.2904 53.7706 97.9491 53.632C97.6077 53.4826 97.2291 53.408 96.8131 53.408C96.4077 53.408 96.0824 53.4933 95.8371 53.664C95.6024 53.824 95.4851 54.0533 95.4851 54.352C95.4851 54.672 95.6344 54.912 95.9331 55.072C96.2424 55.232 96.6211 55.4026 97.0691 55.584L98.4131 56.128C99.0424 56.384 99.5437 56.736 99.9171 57.184C100.29 57.632 100.477 58.224 100.477 58.96C100.477 59.536 100.322 60.0693 100.013 60.56C99.7037 61.0506 99.2557 61.4453 98.6691 61.744C98.0824 62.0426 97.3731 62.192 96.5411 62.192Z" fill="#955471"/>
<path d="M105.15 62.192C104.468 62.192 103.785 62.064 103.102 61.808C102.43 61.552 101.828 61.1786 101.294 60.688L102.638 59.072C103.012 59.392 103.428 59.6533 103.886 59.856C104.345 60.0586 104.788 60.16 105.214 60.16C105.705 60.16 106.068 60.0693 106.302 59.888C106.548 59.7066 106.67 59.4613 106.67 59.152C106.67 58.8213 106.532 58.5813 106.254 58.432C105.988 58.272 105.625 58.096 105.166 57.904L103.806 57.328C103.454 57.1786 103.118 56.9813 102.798 56.736C102.478 56.48 102.217 56.1653 102.014 55.792C101.812 55.4186 101.71 54.9813 101.71 54.48C101.71 53.904 101.865 53.3813 102.174 52.912C102.494 52.4426 102.932 52.0693 103.486 51.792C104.052 51.5146 104.697 51.376 105.422 51.376C106.02 51.376 106.617 51.4933 107.214 51.728C107.812 51.9626 108.334 52.304 108.782 52.752L107.582 54.24C107.241 53.9733 106.9 53.7706 106.558 53.632C106.217 53.4826 105.838 53.408 105.422 53.408C105.017 53.408 104.692 53.4933 104.446 53.664C104.212 53.824 104.094 54.0533 104.094 54.352C104.094 54.672 104.244 54.912 104.542 55.072C104.852 55.232 105.23 55.4026 105.678 55.584L107.022 56.128C107.652 56.384 108.153 56.736 108.526 57.184C108.9 57.632 109.086 58.224 109.086 58.96C109.086 59.536 108.932 60.0693 108.622 60.56C108.313 61.0506 107.865 61.4453 107.278 61.744C106.692 62.0426 105.982 62.192 105.15 62.192Z" fill="#955471"/>
<path d="M78.7911 134.192C78.1084 134.192 77.4257 134.064 76.7431 133.808C76.0711 133.552 75.4684 133.179 74.9351 132.688L76.2791 131.072C76.6524 131.392 77.0684 131.653 77.5271 131.856C77.9857 132.059 78.4284 132.16 78.8551 132.16C79.3457 132.16 79.7084 132.069 79.9431 131.888C80.1884 131.707 80.3111 131.461 80.3111 131.152C80.3111 130.821 80.1724 130.581 79.8951 130.432C79.6284 130.272 79.2657 130.096 78.8071 129.904L77.4471 129.328C77.0951 129.179 76.7591 128.981 76.4391 128.736C76.1191 128.48 75.8577 128.165 75.6551 127.792C75.4524 127.419 75.3511 126.981 75.3511 126.48C75.3511 125.904 75.5057 125.381 75.8151 124.912C76.1351 124.443 76.5724 124.069 77.1271 123.792C77.6924 123.515 78.3377 123.376 79.0631 123.376C79.6604 123.376 80.2577 123.493 80.8551 123.728C81.4524 123.963 81.9751 124.304 82.4231 124.752L81.2231 126.24C80.8817 125.973 80.5404 125.771 80.1991 125.632C79.8577 125.483 79.4791 125.408 79.0631 125.408C78.6577 125.408 78.3324 125.493 78.0871 125.664C77.8524 125.824 77.7351 126.053 77.7351 126.352C77.7351 126.672 77.8844 126.912 78.1831 127.072C78.4924 127.232 78.8711 127.403 79.3191 127.584L80.6631 128.128C81.2924 128.384 81.7937 128.736 82.1671 129.184C82.5404 129.632 82.7271 130.224 82.7271 130.96C82.7271 131.536 82.5724 132.069 82.2631 132.56C81.9537 133.051 81.5057 133.445 80.9191 133.744C80.3324 134.043 79.6231 134.192 78.7911 134.192Z" fill="#955471"/>
<path d="M88.8497 134.192C87.975 134.192 87.1697 133.989 86.4337 133.584C85.6977 133.179 85.1057 132.581 84.6577 131.792C84.2204 130.992 84.0017 130.011 84.0017 128.848C84.0017 127.696 84.2257 126.715 84.6737 125.904C85.1323 125.083 85.735 124.459 86.4817 124.032C87.239 123.595 88.055 123.376 88.9297 123.376C89.6017 123.376 90.2044 123.515 90.7377 123.792C91.271 124.059 91.7137 124.373 92.0657 124.736L90.8177 126.24C90.551 125.995 90.2683 125.797 89.9697 125.648C89.6817 125.488 89.351 125.408 88.9777 125.408C88.5084 125.408 88.0764 125.541 87.6817 125.808C87.2977 126.075 86.9884 126.459 86.7537 126.96C86.5297 127.461 86.4177 128.064 86.4177 128.768C86.4177 129.835 86.647 130.667 87.1057 131.264C87.5643 131.861 88.1777 132.16 88.9457 132.16C89.3724 132.16 89.751 132.064 90.0817 131.872C90.423 131.68 90.7217 131.451 90.9777 131.184L92.2257 132.656C91.351 133.68 90.2257 134.192 88.8497 134.192Z" fill="#955471"/>
<path d="M96.5411 134.192C95.8584 134.192 95.1757 134.064 94.4931 133.808C93.8211 133.552 93.2184 133.179 92.6851 132.688L94.0291 131.072C94.4024 131.392 94.8184 131.653 95.2771 131.856C95.7357 132.059 96.1784 132.16 96.6051 132.16C97.0957 132.16 97.4584 132.069 97.6931 131.888C97.9384 131.707 98.0611 131.461 98.0611 131.152C98.0611 130.821 97.9224 130.581 97.6451 130.432C97.3784 130.272 97.0157 130.096 96.5571 129.904L95.1971 129.328C94.8451 129.179 94.5091 128.981 94.1891 128.736C93.8691 128.48 93.6077 128.165 93.4051 127.792C93.2024 127.419 93.1011 126.981 93.1011 126.48C93.1011 125.904 93.2557 125.381 93.5651 124.912C93.8851 124.443 94.3224 124.069 94.8771 123.792C95.4424 123.515 96.0877 123.376 96.8131 123.376C97.4104 123.376 98.0077 123.493 98.6051 123.728C99.2024 123.963 99.7251 124.304 100.173 124.752L98.9731 126.24C98.6317 125.973 98.2904 125.771 97.9491 125.632C97.6077 125.483 97.2291 125.408 96.8131 125.408C96.4077 125.408 96.0824 125.493 95.8371 125.664C95.6024 125.824 95.4851 126.053 95.4851 126.352C95.4851 126.672 95.6344 126.912 95.9331 127.072C96.2424 127.232 96.6211 127.403 97.0691 127.584L98.4131 128.128C99.0424 128.384 99.5437 128.736 99.9171 129.184C100.29 129.632 100.477 130.224 100.477 130.96C100.477 131.536 100.322 132.069 100.013 132.56C99.7037 133.051 99.2557 133.445 98.6691 133.744C98.0824 134.043 97.3731 134.192 96.5411 134.192Z" fill="#955471"/>
<path d="M105.15 134.192C104.468 134.192 103.785 134.064 103.102 133.808C102.43 133.552 101.828 133.179 101.294 132.688L102.638 131.072C103.012 131.392 103.428 131.653 103.886 131.856C104.345 132.059 104.788 132.16 105.214 132.16C105.705 132.16 106.068 132.069 106.302 131.888C106.548 131.707 106.67 131.461 106.67 131.152C106.67 130.821 106.532 130.581 106.254 130.432C105.988 130.272 105.625 130.096 105.166 129.904L103.806 129.328C103.454 129.179 103.118 128.981 102.798 128.736C102.478 128.48 102.217 128.165 102.014 127.792C101.812 127.419 101.71 126.981 101.71 126.48C101.71 125.904 101.865 125.381 102.174 124.912C102.494 124.443 102.932 124.069 103.486 123.792C104.052 123.515 104.697 123.376 105.422 123.376C106.02 123.376 106.617 123.493 107.214 123.728C107.812 123.963 108.334 124.304 108.782 124.752L107.582 126.24C107.241 125.973 106.9 125.771 106.558 125.632C106.217 125.483 105.838 125.408 105.422 125.408C105.017 125.408 104.692 125.493 104.446 125.664C104.212 125.824 104.094 126.053 104.094 126.352C104.094 126.672 104.244 126.912 104.542 127.072C104.852 127.232 105.23 127.403 105.678 127.584L107.022 128.128C107.652 128.384 108.153 128.736 108.526 129.184C108.9 129.632 109.086 130.224 109.086 130.96C109.086 131.536 108.932 132.069 108.622 132.56C108.313 133.051 107.865 133.445 107.278 133.744C106.692 134.043 105.982 134.192 105.15 134.192Z" fill="#955471"/>
<path d="M87.1004 206.192C86.3111 206.192 85.6444 206.037 85.1004 205.728C84.5564 205.408 84.1031 204.933 83.7404 204.304L85.3404 203.12C85.5324 203.472 85.7564 203.733 86.0124 203.904C86.2684 204.075 86.5298 204.16 86.7964 204.16C87.2231 204.16 87.5431 204.032 87.7564 203.776C87.9804 203.509 88.0924 203.029 88.0924 202.336V195.568H90.4444V202.528C90.4444 203.2 90.3271 203.813 90.0924 204.368C89.8578 204.923 89.4898 205.365 88.9884 205.696C88.4978 206.027 87.8684 206.192 87.1004 206.192Z" fill="#8F863D"/>
<path d="M96.0411 206.192C95.3584 206.192 94.6757 206.064 93.9931 205.808C93.3211 205.552 92.7184 205.179 92.1851 204.688L93.5291 203.072C93.9024 203.392 94.3184 203.653 94.7771 203.856C95.2357 204.059 95.6784 204.16 96.1051 204.16C96.5957 204.16 96.9584 204.069 97.1931 203.888C97.4384 203.707 97.5611 203.461 97.5611 203.152C97.5611 202.821 97.4224 202.581 97.1451 202.432C96.8784 202.272 96.5157 202.096 96.0571 201.904L94.6971 201.328C94.3451 201.179 94.0091 200.981 93.6891 200.736C93.3691 200.48 93.1077 200.165 92.9051 199.792C92.7024 199.419 92.6011 198.981 92.6011 198.48C92.6011 197.904 92.7557 197.381 93.0651 196.912C93.3851 196.443 93.8224 196.069 94.3771 195.792C94.9424 195.515 95.5877 195.376 96.3131 195.376C96.9104 195.376 97.5077 195.493 98.1051 195.728C98.7024 195.963 99.2251 196.304 99.6731 196.752L98.4731 198.24C98.1317 197.973 97.7904 197.771 97.4491 197.632C97.1077 197.483 96.7291 197.408 96.3131 197.408C95.9077 197.408 95.5824 197.493 95.3371 197.664C95.1024 197.824 94.9851 198.053 94.9851 198.352C94.9851 198.672 95.1344 198.912 95.4331 199.072C95.7424 199.232 96.1211 199.403 96.5691 199.584L97.9131 200.128C98.5424 200.384 99.0437 200.736 99.4171 201.184C99.7904 201.632 99.9771 202.224 99.9771 202.96C99.9771 203.536 99.8224 204.069 99.5131 204.56C99.2037 205.051 98.7557 205.445 98.1691 205.744C97.5824 206.043 96.8731 206.192 96.0411 206.192Z" fill="#8F863D"/>
<path d="M159.1 170.192C158.311 170.192 157.644 170.037 157.1 169.728C156.556 169.408 156.103 168.933 155.74 168.304L157.34 167.12C157.532 167.472 157.756 167.733 158.012 167.904C158.268 168.075 158.53 168.16 158.796 168.16C159.223 168.16 159.543 168.032 159.756 167.776C159.98 167.509 160.092 167.029 160.092 166.336V159.568H162.444V166.528C162.444 167.2 162.327 167.813 162.092 168.368C161.858 168.923 161.49 169.365 160.988 169.696C160.498 170.027 159.868 170.192 159.1 170.192Z" fill="#8F863D"/>
<path d="M168.041 170.192C167.358 170.192 166.676 170.064 165.993 169.808C165.321 169.552 164.718 169.179 164.185 168.688L165.529 167.072C165.902 167.392 166.318 167.653 166.777 167.856C167.236 168.059 167.678 168.16 168.105 168.16C168.596 168.16 168.958 168.069 169.193 167.888C169.438 167.707 169.561 167.461 169.561 167.152C169.561 166.821 169.422 166.581 169.145 166.432C168.878 166.272 168.516 166.096 168.057 165.904L166.697 165.328C166.345 165.179 166.009 164.981 165.689 164.736C165.369 164.48 165.108 164.165 164.905 163.792C164.702 163.419 164.601 162.981 164.601 162.48C164.601 161.904 164.756 161.381 165.065 160.912C165.385 160.443 165.822 160.069 166.377 159.792C166.942 159.515 167.588 159.376 168.313 159.376C168.91 159.376 169.508 159.493 170.105 159.728C170.702 159.963 171.225 160.304 171.673 160.752L170.473 162.24C170.132 161.973 169.79 161.771 169.449 161.632C169.108 161.483 168.729 161.408 168.313 161.408C167.908 161.408 167.582 161.493 167.337 161.664C167.102 161.824 166.985 162.053 166.985 162.352C166.985 162.672 167.134 162.912 167.433 163.072C167.742 163.232 168.121 163.403 168.569 163.584L169.913 164.128C170.542 164.384 171.044 164.736 171.417 165.184C171.79 165.632 171.977 166.224 171.977 166.96C171.977 167.536 171.822 168.069 171.513 168.56C171.204 169.051 170.756 169.445 170.169 169.744C169.582 170.043 168.873 170.192 168.041 170.192Z" fill="#8F863D"/>
<path d="M159.1 98.192C158.311 98.192 157.644 98.0373 157.1 97.728C156.556 97.408 156.103 96.9333 155.74 96.304L157.34 95.12C157.532 95.472 157.756 95.7333 158.012 95.904C158.268 96.0746 158.53 96.16 158.796 96.16C159.223 96.16 159.543 96.032 159.756 95.776C159.98 95.5093 160.092 95.0293 160.092 94.336V87.568H162.444V94.528C162.444 95.2 162.327 95.8133 162.092 96.368C161.858 96.9226 161.49 97.3653 160.988 97.696C160.498 98.0266 159.868 98.192 159.1 98.192Z" fill="#8F863D"/>
<path d="M168.041 98.192C167.358 98.192 166.676 98.064 165.993 97.808C165.321 97.552 164.718 97.1786 164.185 96.688L165.529 95.072C165.902 95.392 166.318 95.6533 166.777 95.856C167.236 96.0586 167.678 96.16 168.105 96.16C168.596 96.16 168.958 96.0693 169.193 95.888C169.438 95.7066 169.561 95.4613 169.561 95.152C169.561 94.8213 169.422 94.5813 169.145 94.432C168.878 94.272 168.516 94.096 168.057 93.904L166.697 93.328C166.345 93.1786 166.009 92.9813 165.689 92.736C165.369 92.48 165.108 92.1653 164.905 91.792C164.702 91.4186 164.601 90.9813 164.601 90.48C164.601 89.904 164.756 89.3813 165.065 88.912C165.385 88.4426 165.822 88.0693 166.377 87.792C166.942 87.5146 167.588 87.376 168.313 87.376C168.91 87.376 169.508 87.4933 170.105 87.728C170.702 87.9626 171.225 88.304 171.673 88.752L170.473 90.24C170.132 89.9733 169.79 89.7706 169.449 89.632C169.108 89.4826 168.729 89.408 168.313 89.408C167.908 89.408 167.582 89.4933 167.337 89.664C167.102 89.824 166.985 90.0533 166.985 90.352C166.985 90.672 167.134 90.912 167.433 91.072C167.742 91.232 168.121 91.4026 168.569 91.584L169.913 92.128C170.542 92.384 171.044 92.736 171.417 93.184C171.79 93.632 171.977 94.224 171.977 94.96C171.977 95.536 171.822 96.0693 171.513 96.56C171.204 97.0506 170.756 97.4453 170.169 97.744C169.582 98.0426 168.873 98.192 168.041 98.192Z" fill="#8F863D"/>
<path d="M291.1 110.192C290.311 110.192 289.644 110.037 289.1 109.728C288.556 109.408 288.103 108.933 287.74 108.304L289.34 107.12C289.532 107.472 289.756 107.733 290.012 107.904C290.268 108.075 290.53 108.16 290.796 108.16C291.223 108.16 291.543 108.032 291.756 107.776C291.98 107.509 292.092 107.029 292.092 106.336V99.568H294.444V106.528C294.444 107.2 294.327 107.813 294.092 108.368C293.858 108.923 293.49 109.365 292.988 109.696C292.498 110.027 291.868 110.192 291.1 110.192Z" fill="#8F863D"/>
<path d="M300.041 110.192C299.358 110.192 298.676 110.064 297.993 109.808C297.321 109.552 296.718 109.179 296.185 108.688L297.529 107.072C297.902 107.392 298.318 107.653 298.777 107.856C299.236 108.059 299.678 108.16 300.105 108.16C300.596 108.16 300.958 108.069 301.193 107.888C301.438 107.707 301.561 107.461 301.561 107.152C301.561 106.821 301.422 106.581 301.145 106.432C300.878 106.272 300.516 106.096 300.057 105.904L298.697 105.328C298.345 105.179 298.009 104.981 297.689 104.736C297.369 104.48 297.108 104.165 296.905 103.792C296.702 103.419 296.601 102.981 296.601 102.48C296.601 101.904 296.756 101.381 297.065 100.912C297.385 100.443 297.822 100.069 298.377 99.792C298.942 99.5146 299.588 99.376 300.313 99.376C300.91 99.376 301.508 99.4933 302.105 99.728C302.702 99.9626 303.225 100.304 303.673 100.752L302.473 102.24C302.132 101.973 301.79 101.771 301.449 101.632C301.108 101.483 300.729 101.408 300.313 101.408C299.908 101.408 299.582 101.493 299.337 101.664C299.102 101.824 298.985 102.053 298.985 102.352C298.985 102.672 299.134 102.912 299.433 103.072C299.742 103.232 300.121 103.403 300.569 103.584L301.913 104.128C302.542 104.384 303.044 104.736 303.417 105.184C303.79 105.632 303.977 106.224 303.977 106.96C303.977 107.536 303.822 108.069 303.513 108.56C303.204 109.051 302.756 109.445 302.169 109.744C301.582 110.043 300.873 110.192 300.041 110.192Z" fill="#8F863D"/>
<path d="M336.404 110.192C335.53 110.192 334.724 109.989 333.988 109.584C333.252 109.179 332.66 108.581 332.212 107.792C331.775 106.992 331.556 106.011 331.556 104.848C331.556 103.696 331.78 102.715 332.228 101.904C332.687 101.083 333.29 100.459 334.036 100.032C334.794 99.5946 335.61 99.376 336.484 99.376C337.156 99.376 337.759 99.5146 338.292 99.792C338.826 100.059 339.268 100.373 339.62 100.736L338.372 102.24C338.106 101.995 337.823 101.797 337.524 101.648C337.236 101.488 336.906 101.408 336.532 101.408C336.063 101.408 335.631 101.541 335.236 101.808C334.852 102.075 334.543 102.459 334.308 102.96C334.084 103.461 333.972 104.064 333.972 104.768C333.972 105.835 334.202 106.667 334.66 107.264C335.119 107.861 335.732 108.16 336.5 108.16C336.927 108.16 337.306 108.064 337.636 107.872C337.978 107.68 338.276 107.451 338.532 107.184L339.78 108.656C338.906 109.68 337.78 110.192 336.404 110.192Z" fill="#955471"/>
<path d="M344.096 110.192C343.413 110.192 342.73 110.064 342.048 109.808C341.376 109.552 340.773 109.179 340.24 108.688L341.584 107.072C341.957 107.392 342.373 107.653 342.832 107.856C343.29 108.059 343.733 108.16 344.16 108.16C344.65 108.16 345.013 108.069 345.248 107.888C345.493 107.707 345.616 107.461 345.616 107.152C345.616 106.821 345.477 106.581 345.2 106.432C344.933 106.272 344.57 106.096 344.112 105.904L342.752 105.328C342.4 105.179 342.064 104.981 341.744 104.736C341.424 104.48 341.162 104.165 340.96 103.792C340.757 103.419 340.656 102.981 340.656 102.48C340.656 101.904 340.81 101.381 341.12 100.912C341.44 100.443 341.877 100.069 342.432 99.792C342.997 99.5146 343.642 99.376 344.368 99.376C344.965 99.376 345.562 99.4933 346.16 99.728C346.757 99.9626 347.28 100.304 347.728 100.752L346.528 102.24C346.186 101.973 345.845 101.771 345.504 101.632C345.162 101.483 344.784 101.408 344.368 101.408C343.962 101.408 343.637 101.493 343.392 101.664C343.157 101.824 343.04 102.053 343.04 102.352C343.04 102.672 343.189 102.912 343.488 103.072C343.797 103.232 344.176 103.403 344.624 103.584L345.968 104.128C346.597 104.384 347.098 104.736 347.472 105.184C347.845 105.632 348.032 106.224 348.032 106.96C348.032 107.536 347.877 108.069 347.568 108.56C347.258 109.051 346.81 109.445 346.224 109.744C345.637 110.043 344.928 110.192 344.096 110.192Z" fill="#955471"/>
<path d="M352.705 110.192C352.022 110.192 351.34 110.064 350.657 109.808C349.985 109.552 349.382 109.179 348.849 108.688L350.193 107.072C350.566 107.392 350.982 107.653 351.441 107.856C351.9 108.059 352.342 108.16 352.769 108.16C353.26 108.16 353.622 108.069 353.857 107.888C354.102 107.707 354.225 107.461 354.225 107.152C354.225 106.821 354.086 106.581 353.809 106.432C353.542 106.272 353.18 106.096 352.721 105.904L351.361 105.328C351.009 105.179 350.673 104.981 350.353 104.736C350.033 104.48 349.772 104.165 349.569 103.792C349.366 103.419 349.265 102.981 349.265 102.48C349.265 101.904 349.42 101.381 349.729 100.912C350.049 100.443 350.486 100.069 351.041 99.792C351.606 99.5146 352.252 99.376 352.977 99.376C353.574 99.376 354.172 99.4933 354.769 99.728C355.366 99.9626 355.889 100.304 356.337 100.752L355.137 102.24C354.796 101.973 354.454 101.771 354.113 101.632C353.772 101.483 353.393 101.408 352.977 101.408C352.572 101.408 352.246 101.493 352.001 101.664C351.766 101.824 351.649 102.053 351.649 102.352C351.649 102.672 351.798 102.912 352.097 103.072C352.406 103.232 352.785 103.403 353.233 103.584L354.577 104.128C355.206 104.384 355.708 104.736 356.081 105.184C356.454 105.632 356.641 106.224 356.641 106.96C356.641 107.536 356.486 108.069 356.177 108.56C355.868 109.051 355.42 109.445 354.833 109.744C354.246 110.043 353.537 110.192 352.705 110.192Z" fill="#955471"/>
<path d="M282.045 158V147.568H285.629C286.397 147.568 287.09 147.675 287.709 147.888C288.338 148.091 288.839 148.437 289.213 148.928C289.586 149.419 289.773 150.085 289.773 150.928C289.773 151.739 289.586 152.405 289.213 152.928C288.839 153.451 288.343 153.84 287.725 154.096C287.106 154.341 286.429 154.464 285.693 154.464H284.397V158H282.045ZM284.397 152.592H285.549C286.829 152.592 287.469 152.037 287.469 150.928C287.469 150.384 287.298 150 286.957 149.776C286.615 149.552 286.125 149.44 285.485 149.44H284.397V152.592Z" fill="#357F8C"/>
<path d="M291.576 158V147.568H293.992L296.712 152.752L297.736 155.056H297.8C297.757 154.501 297.698 153.883 297.624 153.2C297.549 152.517 297.512 151.867 297.512 151.248V147.568H299.752V158H297.336L294.616 152.8L293.592 150.528H293.528C293.581 151.104 293.64 151.723 293.704 152.384C293.778 153.045 293.816 153.685 293.816 154.304V158H291.576Z" fill="#357F8C"/>
<path d="M306.824 158.192C305.875 158.192 305.011 157.989 304.232 157.584C303.464 157.179 302.851 156.581 302.392 155.792C301.944 154.992 301.72 154.011 301.72 152.848C301.72 151.696 301.95 150.715 302.408 149.904C302.878 149.083 303.496 148.459 304.264 148.032C305.032 147.595 305.88 147.376 306.808 147.376C307.566 147.376 308.216 147.515 308.76 147.792C309.304 148.069 309.747 148.384 310.088 148.736L308.856 150.24C308.59 150.005 308.307 149.808 308.008 149.648C307.71 149.488 307.336 149.408 306.888 149.408C306.078 149.408 305.416 149.707 304.904 150.304C304.392 150.901 304.136 151.723 304.136 152.768C304.136 153.835 304.382 154.667 304.872 155.264C305.363 155.861 306.094 156.16 307.064 156.16C307.278 156.16 307.486 156.133 307.688 156.08C307.891 156.027 308.056 155.947 308.184 155.84V154.048H306.456V152.128H310.264V156.928C309.902 157.28 309.416 157.579 308.808 157.824C308.211 158.069 307.55 158.192 306.824 158.192Z" fill="#357F8C"/>
<path d="M334.502 158.192C333.819 158.192 333.137 158.064 332.454 157.808C331.782 157.552 331.179 157.179 330.646 156.688L331.99 155.072C332.363 155.392 332.779 155.653 333.238 155.856C333.697 156.059 334.139 156.16 334.566 156.16C335.057 156.16 335.419 156.069 335.654 155.888C335.899 155.707 336.022 155.461 336.022 155.152C336.022 154.821 335.883 154.581 335.606 154.432C335.339 154.272 334.977 154.096 334.518 153.904L333.158 153.328C332.806 153.179 332.47 152.981 332.15 152.736C331.83 152.48 331.569 152.165 331.366 151.792C331.163 151.419 331.062 150.981 331.062 150.48C331.062 149.904 331.217 149.381 331.526 148.912C331.846 148.443 332.283 148.069 332.838 147.792C333.403 147.515 334.049 147.376 334.774 147.376C335.371 147.376 335.969 147.493 336.566 147.728C337.163 147.963 337.686 148.304 338.134 148.752L336.934 150.24C336.593 149.973 336.251 149.771 335.91 149.632C335.569 149.483 335.19 149.408 334.774 149.408C334.369 149.408 334.043 149.493 333.798 149.664C333.563 149.824 333.446 150.053 333.446 150.352C333.446 150.672 333.595 150.912 333.894 151.072C334.203 151.232 334.582 151.403 335.03 151.584L336.374 152.128C337.003 152.384 337.505 152.736 337.878 153.184C338.251 153.632 338.438 154.224 338.438 154.96C338.438 155.536 338.283 156.069 337.974 156.56C337.665 157.051 337.217 157.445 336.63 157.744C336.043 158.043 335.334 158.192 334.502 158.192Z" fill="#8F863D"/>
<path d="M342.017 158L338.865 147.568H341.361L342.609 152.432C342.769 152.997 342.907 153.552 343.025 154.096C343.153 154.64 343.297 155.2 343.457 155.776H343.521C343.67 155.2 343.809 154.64 343.937 154.096C344.065 153.552 344.203 152.997 344.353 152.432L345.585 147.568H347.985L344.849 158H342.017Z" fill="#8F863D"/>
<path d="M353.551 158.192C352.602 158.192 351.738 157.989 350.959 157.584C350.191 157.179 349.578 156.581 349.119 155.792C348.671 154.992 348.447 154.011 348.447 152.848C348.447 151.696 348.676 150.715 349.135 149.904C349.604 149.083 350.223 148.459 350.991 148.032C351.759 147.595 352.607 147.376 353.535 147.376C354.292 147.376 354.943 147.515 355.487 147.792C356.031 148.069 356.474 148.384 356.815 148.736L355.583 150.24C355.316 150.005 355.034 149.808 354.735 149.648C354.436 149.488 354.063 149.408 353.615 149.408C352.804 149.408 352.143 149.707 351.631 150.304C351.119 150.901 350.863 151.723 350.863 152.768C350.863 153.835 351.108 154.667 351.599 155.264C352.09 155.861 352.82 156.16 353.791 156.16C354.004 156.16 354.212 156.133 354.415 156.08C354.618 156.027 354.783 155.947 354.911 155.84V154.048H353.183V152.128H356.991V156.928C356.628 157.28 356.143 157.579 355.535 157.824C354.938 158.069 354.276 158.192 353.551 158.192Z" fill="#8F863D"/>
<path d="M15.1004 98.192C14.3111 98.192 13.6444 98.0373 13.1004 97.728C12.5564 97.408 12.1031 96.9333 11.7404 96.304L13.3404 95.12C13.5324 95.472 13.7564 95.7333 14.0124 95.904C14.2684 96.0746 14.5298 96.16 14.7964 96.16C15.2231 96.16 15.5431 96.032 15.7564 95.776C15.9804 95.5093 16.0924 95.0293 16.0924 94.336V87.568H18.4444V94.528C18.4444 95.2 18.3271 95.8133 18.0924 96.368C17.8578 96.9226 17.4898 97.3653 16.9884 97.696C16.4978 98.0266 15.8684 98.192 15.1004 98.192Z" fill="#8F863D"/>
<path d="M24.0411 98.192C23.3584 98.192 22.6757 98.064 21.9931 97.808C21.3211 97.552 20.7184 97.1786 20.1851 96.688L21.5291 95.072C21.9024 95.392 22.3184 95.6533 22.7771 95.856C23.2357 96.0586 23.6784 96.16 24.1051 96.16C24.5957 96.16 24.9584 96.0693 25.1931 95.888C25.4384 95.7066 25.5611 95.4613 25.5611 95.152C25.5611 94.8213 25.4224 94.5813 25.1451 94.432C24.8784 94.272 24.5157 94.096 24.0571 93.904L22.6971 93.328C22.3451 93.1786 22.0091 92.9813 21.6891 92.736C21.3691 92.48 21.1077 92.1653 20.9051 91.792C20.7024 91.4186 20.6011 90.9813 20.6011 90.48C20.6011 89.904 20.7557 89.3813 21.0651 88.912C21.3851 88.4426 21.8224 88.0693 22.3771 87.792C22.9424 87.5146 23.5877 87.376 24.3131 87.376C24.9104 87.376 25.5077 87.4933 26.1051 87.728C26.7024 87.9626 27.2251 88.304 27.6731 88.752L26.4731 90.24C26.1317 89.9733 25.7904 89.7706 25.4491 89.632C25.1077 89.4826 24.7291 89.408 24.3131 89.408C23.9077 89.408 23.5824 89.4933 23.3371 89.664C23.1024 89.824 22.9851 90.0533 22.9851 90.352C22.9851 90.672 23.1344 90.912 23.4331 91.072C23.7424 91.232 24.1211 91.4026 24.5691 91.584L25.9131 92.128C26.5424 92.384 27.0437 92.736 27.4171 93.184C27.7904 93.632 27.9771 94.224 27.9771 94.96C27.9771 95.536 27.8224 96.0693 27.5131 96.56C27.2037 97.0506 26.7557 97.4453 26.1691 97.744C25.5824 98.0426 24.8731 98.192 24.0411 98.192Z" fill="#8F863D"/>
<path d="M6.04456 170V159.568H9.62856C10.3966 159.568 11.0899 159.675 11.7086 159.888C12.3379 160.091 12.8392 160.437 13.2126 160.928C13.5859 161.419 13.7726 162.085 13.7726 162.928C13.7726 163.739 13.5859 164.405 13.2126 164.928C12.8392 165.451 12.3432 165.84 11.7246 166.096C11.1059 166.341 10.4286 166.464 9.69256 166.464H8.39656V170H6.04456ZM8.39656 164.592H9.54856C10.8286 164.592 11.4686 164.037 11.4686 162.928C11.4686 162.384 11.2979 162 10.9566 161.776C10.6152 161.552 10.1246 161.44 9.48456 161.44H8.39656V164.592Z" fill="#357F8C"/>
<path d="M15.5758 170V159.568H17.9918L20.7118 164.752L21.7358 167.056H21.7998C21.7571 166.501 21.6985 165.883 21.6238 165.2C21.5491 164.517 21.5118 163.867 21.5118 163.248V159.568H23.7518V170H21.3358L18.6158 164.8L17.5918 162.528H17.5278C17.5811 163.104 17.6398 163.723 17.7038 164.384C17.7785 165.045 17.8158 165.685 17.8158 166.304V170H15.5758Z" fill="#357F8C"/>
<path d="M30.8244 170.192C29.8751 170.192 29.0111 169.989 28.2324 169.584C27.4644 169.179 26.8511 168.581 26.3924 167.792C25.9444 166.992 25.7204 166.011 25.7204 164.848C25.7204 163.696 25.9498 162.715 26.4084 161.904C26.8778 161.083 27.4964 160.459 28.2644 160.032C29.0324 159.595 29.8804 159.376 30.8084 159.376C31.5658 159.376 32.2164 159.515 32.7604 159.792C33.3044 160.069 33.7471 160.384 34.0884 160.736L32.8564 162.24C32.5898 162.005 32.3071 161.808 32.0084 161.648C31.7098 161.488 31.3364 161.408 30.8884 161.408C30.0778 161.408 29.4164 161.707 28.9044 162.304C28.3924 162.901 28.1364 163.723 28.1364 164.768C28.1364 165.835 28.3818 166.667 28.8724 167.264C29.3631 167.861 30.0938 168.16 31.0644 168.16C31.2778 168.16 31.4858 168.133 31.6884 168.08C31.8911 168.027 32.0564 167.947 32.1844 167.84V166.048H30.4564V164.128H34.2644V168.928C33.9018 169.28 33.4164 169.579 32.8084 169.824C32.2111 170.069 31.5498 170.192 30.8244 170.192Z" fill="#357F8C"/>
<path d="M6.79106 242.192C6.10839 242.192 5.42573 242.064 4.74306 241.808C4.07106 241.552 3.46839 241.179 2.93506 240.688L4.27906 239.072C4.65239 239.392 5.06839 239.653 5.52706 239.856C5.98573 240.059 6.42839 240.16 6.85506 240.16C7.34573 240.16 7.70839 240.069 7.94306 239.888C8.18839 239.707 8.31106 239.461 8.31106 239.152C8.31106 238.821 8.17239 238.581 7.89506 238.432C7.62839 238.272 7.26573 238.096 6.80706 237.904L5.44706 237.328C5.09506 237.179 4.75906 236.981 4.43906 236.736C4.11906 236.48 3.85773 236.165 3.65506 235.792C3.45239 235.419 3.35106 234.981 3.35106 234.48C3.35106 233.904 3.50573 233.381 3.81506 232.912C4.13506 232.443 4.57239 232.069 5.12706 231.792C5.69239 231.515 6.33773 231.376 7.06306 231.376C7.66039 231.376 8.25773 231.493 8.85506 231.728C9.45239 231.963 9.97506 232.304 10.4231 232.752L9.22306 234.24C8.88173 233.973 8.54039 233.771 8.19906 233.632C7.85773 233.483 7.47906 233.408 7.06306 233.408C6.65773 233.408 6.33239 233.493 6.08706 233.664C5.85239 233.824 5.73506 234.053 5.73506 234.352C5.73506 234.672 5.88439 234.912 6.18306 235.072C6.49239 235.232 6.87106 235.403 7.31906 235.584L8.66306 236.128C9.29239 236.384 9.79373 236.736 10.1671 237.184C10.5404 237.632 10.7271 238.224 10.7271 238.96C10.7271 239.536 10.5724 240.069 10.2631 240.56C9.95373 241.051 9.50573 241.445 8.91906 241.744C8.33239 242.043 7.62306 242.192 6.79106 242.192Z" fill="#955471"/>
<path d="M16.8497 242.192C15.975 242.192 15.1697 241.989 14.4337 241.584C13.6977 241.179 13.1057 240.581 12.6577 239.792C12.2204 238.992 12.0017 238.011 12.0017 236.848C12.0017 235.696 12.2257 234.715 12.6737 233.904C13.1324 233.083 13.735 232.459 14.4817 232.032C15.239 231.595 16.055 231.376 16.9297 231.376C17.6017 231.376 18.2044 231.515 18.7377 231.792C19.271 232.059 19.7137 232.373 20.0657 232.736L18.8177 234.24C18.551 233.995 18.2684 233.797 17.9697 233.648C17.6817 233.488 17.351 233.408 16.9777 233.408C16.5084 233.408 16.0764 233.541 15.6817 233.808C15.2977 234.075 14.9884 234.459 14.7537 234.96C14.5297 235.461 14.4177 236.064 14.4177 236.768C14.4177 237.835 14.647 238.667 15.1057 239.264C15.5644 239.861 16.1777 240.16 16.9457 240.16C17.3724 240.16 17.751 240.064 18.0817 239.872C18.423 239.68 18.7217 239.451 18.9777 239.184L20.2257 240.656C19.351 241.68 18.2257 242.192 16.8497 242.192Z" fill="#955471"/>
<path d="M24.5411 242.192C23.8584 242.192 23.1757 242.064 22.4931 241.808C21.8211 241.552 21.2184 241.179 20.6851 240.688L22.0291 239.072C22.4024 239.392 22.8184 239.653 23.2771 239.856C23.7357 240.059 24.1784 240.16 24.6051 240.16C25.0957 240.16 25.4584 240.069 25.6931 239.888C25.9384 239.707 26.0611 239.461 26.0611 239.152C26.0611 238.821 25.9224 238.581 25.6451 238.432C25.3784 238.272 25.0157 238.096 24.5571 237.904L23.1971 237.328C22.8451 237.179 22.5091 236.981 22.1891 236.736C21.8691 236.48 21.6077 236.165 21.4051 235.792C21.2024 235.419 21.1011 234.981 21.1011 234.48C21.1011 233.904 21.2557 233.381 21.5651 232.912C21.8851 232.443 22.3224 232.069 22.8771 231.792C23.4424 231.515 24.0877 231.376 24.8131 231.376C25.4104 231.376 26.0077 231.493 26.6051 231.728C27.2024 231.963 27.7251 232.304 28.1731 232.752L26.9731 234.24C26.6317 233.973 26.2904 233.771 25.9491 233.632C25.6077 233.483 25.2291 233.408 24.8131 233.408C24.4077 233.408 24.0824 233.493 23.8371 233.664C23.6024 233.824 23.4851 234.053 23.4851 234.352C23.4851 234.672 23.6344 234.912 23.9331 235.072C24.2424 235.232 24.6211 235.403 25.0691 235.584L26.4131 236.128C27.0424 236.384 27.5437 236.736 27.9171 237.184C28.2904 237.632 28.4771 238.224 28.4771 238.96C28.4771 239.536 28.3224 240.069 28.0131 240.56C27.7037 241.051 27.2557 241.445 26.6691 241.744C26.0824 242.043 25.3731 242.192 24.5411 242.192Z" fill="#955471"/>
<path d="M33.1504 242.192C32.4678 242.192 31.7851 242.064 31.1024 241.808C30.4304 241.552 29.8278 241.179 29.2944 240.688L30.6384 239.072C31.0118 239.392 31.4278 239.653 31.8864 239.856C32.3451 240.059 32.7878 240.16 33.2144 240.16C33.7051 240.16 34.0678 240.069 34.3024 239.888C34.5478 239.707 34.6704 239.461 34.6704 239.152C34.6704 238.821 34.5318 238.581 34.2544 238.432C33.9878 238.272 33.6251 238.096 33.1664 237.904L31.8064 237.328C31.4544 237.179 31.1184 236.981 30.7984 236.736C30.4784 236.48 30.2171 236.165 30.0144 235.792C29.8118 235.419 29.7104 234.981 29.7104 234.48C29.7104 233.904 29.8651 233.381 30.1744 232.912C30.4944 232.443 30.9318 232.069 31.4864 231.792C32.0518 231.515 32.6971 231.376 33.4224 231.376C34.0198 231.376 34.6171 231.493 35.2144 231.728C35.8118 231.963 36.3344 232.304 36.7824 232.752L35.5824 234.24C35.2411 233.973 34.8998 233.771 34.5584 233.632C34.2171 233.483 33.8384 233.408 33.4224 233.408C33.0171 233.408 32.6918 233.493 32.4464 233.664C32.2118 233.824 32.0944 234.053 32.0944 234.352C32.0944 234.672 32.2438 234.912 32.5424 235.072C32.8518 235.232 33.2304 235.403 33.6784 235.584L35.0224 236.128C35.6518 236.384 36.1531 236.736 36.5264 237.184C36.8998 237.632 37.0864 238.224 37.0864 238.96C37.0864 239.536 36.9318 240.069 36.6224 240.56C36.3131 241.051 35.8651 241.445 35.2784 241.744C34.6918 242.043 33.9824 242.192 33.1504 242.192Z" fill="#955471"/>
<path d="M228.667 118.667H222.667L229.333 128L222.667 137.333H228.667L235.333 128L228.667 118.667Z" fill="#B4BDBE"/>
<path d="M219.333 118.667H213.333L220 128L213.333 137.333H219.333L226 128L219.333 118.667Z" fill="#B4BDBE"/>
<path d="M20 71L25.7735 61H14.2265L20 71ZM19 41V62H21V41H19Z" fill="#CAE2E7"/>
<path d="M54.9999 128L53.9999 128L53.9999 129L54.9999 129L54.9999 128ZM70.9999 128L60.9999 122.226L60.9999 133.774L70.9999 128ZM54.9999 92L54.9999 91L54.9999 91L54.9999 92ZM143 92L133 86.2265L133 97.7735L143 92ZM88 92L88 93H88L88 92ZM88 77L82.2265 87L93.7735 87L88 77ZM54.9999 129L61.9999 129L61.9999 127L54.9999 127L54.9999 129ZM55.9999 128L55.9999 92L53.9999 92L53.9999 128L55.9999 128ZM54.9999 91L41 91L41 93L54.9999 93L54.9999 91ZM54.9999 93L88 93L88 91L54.9999 91L54.9999 93ZM88 93L134 93L134 91L88 91L88 93ZM89 92L89 86L87 86L87 92L89 92Z" fill="#CAE2E7"/>
<path d="M20 143L25.7735 133H14.2265L20 143ZM19 113V134H21V113H19Z" fill="#CAE2E7"/>
<path d="M92 165V166H93V165H92ZM56 165V164H55V165H56ZM56 236V237H57V236H56ZM41 236L51 241.774V230.226L41 236ZM91 149V165H93V149H91ZM92 164H56V166H92V164ZM55 165V236H57V165H55ZM56 235H50V237H56V235Z" fill="#CAE2E7"/>
<path d="M164 143L169.774 133H158.227L164 143ZM128 128V127H127V128H128ZM128 196V197H129V196H128ZM113 196L123 201.774V190.226L113 196ZM163 113V128H165V113H163ZM163 128V134H165V128H163ZM164 127H128V129H164V127ZM127 128V196H129V128H127ZM128 195H122V197H128V195Z" fill="#CAE2E7"/>
</svg>
