<svg width="30" height="30" viewBox="0 0 30 30" fill="none" xmlns="http://www.w3.org/2000/svg">
<rect y="15" width="15" height="15" rx="1.5" fill="#D9CA4A"/>
<rect x="15" width="15" height="15" rx="1.5" fill="#D979A4"/>
<rect width="15" height="15" rx="1.5" fill="#64C9DA"/>
<rect x="15" y="15" width="15" height="15" rx="1.5" fill="#64C9DA"/>
<path d="M5.0808 25.0948C4.69107 25.0948 4.3619 25.0184 4.0933 24.8657C3.8247 24.7077 3.60087 24.4733 3.4218 24.1626L4.2118 23.578C4.3066 23.7518 4.4172 23.8808 4.5436 23.9651C4.67 24.0494 4.79904 24.0915 4.9307 24.0915C5.14137 24.0915 5.29937 24.0283 5.4047 23.9019C5.5153 23.7702 5.5706 23.5332 5.5706 23.1909V19.8492H6.7319V23.2857C6.7319 23.6175 6.67397 23.9203 6.5581 24.1942C6.44224 24.4681 6.26054 24.6866 6.013 24.8499C5.77074 25.0132 5.46 25.0948 5.0808 25.0948Z" fill="#8F863D"/>
<path d="M9.49524 25.0948C9.15817 25.0948 8.8211 25.0316 8.48404 24.9052C8.15224 24.7788 7.85467 24.5945 7.59134 24.3522L8.25494 23.5543C8.43927 23.7123 8.64467 23.8413 8.87113 23.9414C9.0976 24.0415 9.31617 24.0915 9.52684 24.0915C9.7691 24.0915 9.94817 24.0467 10.064 23.9572C10.1852 23.8677 10.2457 23.7465 10.2457 23.5938C10.2457 23.4305 10.1773 23.312 10.0403 23.2383C9.90867 23.1593 9.7296 23.0724 9.50313 22.9776L8.83164 22.6932C8.65784 22.6195 8.49194 22.522 8.33394 22.4009C8.17594 22.2745 8.0469 22.1191 7.94684 21.9348C7.84677 21.7505 7.79674 21.5345 7.79674 21.287C7.79674 21.0026 7.8731 20.7445 8.02584 20.5128C8.18384 20.2811 8.39977 20.0967 8.67364 19.9598C8.95277 19.8229 9.2714 19.7544 9.62953 19.7544C9.92447 19.7544 10.2194 19.8123 10.5143 19.9282C10.8093 20.0441 11.0673 20.2126 11.2885 20.4338L10.696 21.1685C10.5275 21.0368 10.359 20.9368 10.1904 20.8683C10.0219 20.7946 9.83493 20.7577 9.62953 20.7577C9.4294 20.7577 9.26877 20.7998 9.14764 20.8841C9.03177 20.9631 8.97383 21.0763 8.97383 21.2238C8.97383 21.3818 9.04757 21.5003 9.19503 21.5793C9.34777 21.6583 9.53474 21.7426 9.75594 21.8321L10.4195 22.1007C10.7303 22.2271 10.9778 22.4009 11.1621 22.6221C11.3465 22.8433 11.4386 23.1356 11.4386 23.499C11.4386 23.7834 11.3623 24.0467 11.2095 24.289C11.0568 24.5313 10.8356 24.7261 10.5459 24.8736C10.2563 25.0211 9.90604 25.0948 9.49524 25.0948Z" fill="#8F863D"/>
<path d="M18.7496 10.0948C18.3178 10.0948 17.9201 9.99473 17.5567 9.79459C17.1933 9.59446 16.901 9.29953 16.6798 8.90979C16.4639 8.51479 16.3559 8.03026 16.3559 7.45619C16.3559 6.88739 16.4665 6.40286 16.6877 6.00259C16.9142 5.59706 17.2118 5.28896 17.5804 5.07829C17.9544 4.86236 18.3573 4.75439 18.7891 4.75439C19.1209 4.75439 19.4185 4.82286 19.6818 4.95979C19.9452 5.09146 20.1637 5.24683 20.3375 5.42589L19.7213 6.16849C19.5897 6.04736 19.4501 5.94993 19.3026 5.87619C19.1604 5.79719 18.9972 5.75769 18.8128 5.75769C18.5811 5.75769 18.3678 5.82353 18.1729 5.95519C17.9833 6.08686 17.8306 6.27646 17.7147 6.52399C17.6041 6.77153 17.5488 7.06909 17.5488 7.41669C17.5488 7.94336 17.6621 8.35416 17.8885 8.64909C18.115 8.94403 18.4178 9.0915 18.797 9.0915C19.0077 9.0915 19.1947 9.0441 19.3579 8.9493C19.5265 8.8545 19.6739 8.74126 19.8003 8.60959L20.4165 9.33639C19.9847 9.84199 19.429 10.0948 18.7496 10.0948Z" fill="#955471"/>
<path d="M22.5472 10.0948C22.2102 10.0948 21.8731 10.0316 21.536 9.90519C21.2042 9.77879 20.9067 9.59446 20.6433 9.35219L21.3069 8.55429C21.4913 8.71229 21.6967 8.84133 21.9231 8.94139C22.1496 9.04146 22.3682 9.0915 22.5788 9.0915C22.8211 9.0915 23.0002 9.04673 23.116 8.95719C23.2372 8.86766 23.2977 8.74653 23.2977 8.59379C23.2977 8.43053 23.2293 8.31203 23.0923 8.23829C22.9607 8.15929 22.7816 8.07239 22.5551 7.97759L21.8836 7.69319C21.7098 7.61946 21.5439 7.52203 21.3859 7.40089C21.2279 7.27449 21.0989 7.11913 20.9988 6.93479C20.8988 6.75046 20.8487 6.53453 20.8487 6.28699C20.8487 6.00259 20.9251 5.74453 21.0778 5.51279C21.2358 5.28106 21.4518 5.09673 21.7256 4.95979C22.0048 4.82286 22.3234 4.75439 22.6815 4.75439C22.9765 4.75439 23.2714 4.81233 23.5663 4.92819C23.8613 5.04406 24.1193 5.21259 24.3405 5.43379L23.748 6.16849C23.5795 6.03683 23.411 5.93676 23.2424 5.86829C23.0739 5.79456 22.8869 5.75769 22.6815 5.75769C22.4814 5.75769 22.3208 5.79983 22.1996 5.88409C22.0838 5.96309 22.0258 6.07633 22.0258 6.22379C22.0258 6.38179 22.0996 6.50029 22.247 6.57929C22.3998 6.65829 22.5867 6.74256 22.8079 6.83209L23.4715 7.10069C23.7823 7.22709 24.0298 7.40089 24.2141 7.62209C24.3985 7.84329 24.4906 8.13559 24.4906 8.49899C24.4906 8.78339 24.4143 9.04673 24.2615 9.28899C24.1088 9.53126 23.8876 9.72613 23.5979 9.87359C23.3083 10.0211 22.958 10.0948 22.5472 10.0948Z" fill="#955471"/>
<path d="M26.7981 10.0948C26.461 10.0948 26.124 10.0316 25.7869 9.90519C25.4551 9.77879 25.1575 9.59446 24.8942 9.35219L25.5578 8.55429C25.7421 8.71229 25.9475 8.84133 26.174 8.94139C26.4005 9.04146 26.619 9.0915 26.8297 9.0915C27.072 9.0915 27.251 9.04673 27.3669 8.95719C27.488 8.86766 27.5486 8.74653 27.5486 8.59379C27.5486 8.43053 27.4801 8.31203 27.3432 8.23829C27.2115 8.15929 27.0325 8.07239 26.806 7.97759L26.1345 7.69319C25.9607 7.61946 25.7948 7.52203 25.6368 7.40089C25.4788 7.27449 25.3498 7.11913 25.2497 6.93479C25.1496 6.75046 25.0996 6.53453 25.0996 6.28699C25.0996 6.00259 25.176 5.74453 25.3287 5.51279C25.4867 5.28106 25.7027 5.09673 25.9765 4.95979C26.2557 4.82286 26.5743 4.75439 26.9324 4.75439C27.2273 4.75439 27.5223 4.81233 27.8172 4.92819C28.1122 5.04406 28.3702 5.21259 28.5914 5.43379L27.9989 6.16849C27.8304 6.03683 27.6619 5.93676 27.4933 5.86829C27.3248 5.79456 27.1378 5.75769 26.9324 5.75769C26.7323 5.75769 26.5716 5.79983 26.4505 5.88409C26.3346 5.96309 26.2767 6.07633 26.2767 6.22379C26.2767 6.38179 26.3504 6.50029 26.4979 6.57929C26.6506 6.65829 26.8376 6.74256 27.0588 6.83209L27.7224 7.10069C28.0331 7.22709 28.2807 7.40089 28.465 7.62209C28.6493 7.84329 28.7415 8.13559 28.7415 8.49899C28.7415 8.78339 28.6652 9.04673 28.5124 9.28899C28.3597 9.53126 28.1385 9.72613 27.8488 9.87359C27.5591 10.0211 27.2089 10.0948 26.7981 10.0948Z" fill="#955471"/>
<path d="M2.40375 10.0948C2.01402 10.0948 1.68485 10.0184 1.41625 9.8657C1.14765 9.7077 0.923818 9.47333 0.744751 9.1626L1.53475 8.578C1.62955 8.7518 1.74015 8.88083 1.86655 8.9651C1.99295 9.04936 2.12198 9.0915 2.25365 9.0915C2.46432 9.0915 2.62232 9.0283 2.72765 8.9019C2.83825 8.77023 2.89355 8.53323 2.89355 8.1909V4.8492H4.05485V8.2857C4.05485 8.6175 3.99692 8.92033 3.88105 9.1942C3.76518 9.46806 3.58348 9.68663 3.33595 9.8499C3.09368 10.0132 2.78295 10.0948 2.40375 10.0948Z" fill="#357F8C"/>
<path d="M5.24608 10V4.8492H7.01568C7.39488 4.8492 7.73722 4.90186 8.04268 5.0072C8.35342 5.10726 8.60095 5.27843 8.78528 5.5207C8.96962 5.76296 9.06178 6.09213 9.06178 6.5082C9.06178 6.90846 8.96962 7.23763 8.78528 7.4957C8.60095 7.75376 8.35605 7.946 8.05058 8.0724C7.74512 8.19353 7.41068 8.2541 7.04728 8.2541H6.40738V10H5.24608ZM6.40738 7.3298H6.97618C7.60818 7.3298 7.92418 7.05593 7.92418 6.5082C7.92418 6.2396 7.83992 6.05 7.67138 5.9394C7.50285 5.8288 7.26058 5.7735 6.94458 5.7735H6.40738V7.3298Z" fill="#357F8C"/>
<path d="M12.2273 10.0948C11.7586 10.0948 11.332 9.99473 10.9475 9.7946C10.5683 9.59446 10.2655 9.29953 10.039 8.9098C9.81784 8.5148 9.70724 8.03026 9.70724 7.4562C9.70724 6.8874 9.82047 6.40286 10.0469 6.0026C10.2787 5.59706 10.5841 5.28896 10.9633 5.0783C11.3425 4.86236 11.7612 4.7544 12.2194 4.7544C12.5934 4.7544 12.9146 4.82286 13.1832 4.9598C13.4518 5.09673 13.6704 5.2521 13.8389 5.4259L13.2306 6.1685C13.099 6.05263 12.9594 5.9552 12.8119 5.8762C12.6645 5.7972 12.4801 5.7577 12.2589 5.7577C11.8587 5.7577 11.5321 5.90516 11.2793 6.2001C11.0265 6.49503 10.9001 6.90056 10.9001 7.4167C10.9001 7.94336 11.0213 8.35416 11.2635 8.6491C11.5058 8.94403 11.8666 9.0915 12.3458 9.0915C12.4512 9.0915 12.5539 9.07833 12.6539 9.052C12.754 9.02566 12.8356 8.98616 12.8988 8.9335V8.0487H12.0456V7.1007H13.9258V9.4707C13.7468 9.6445 13.5071 9.79196 13.2069 9.9131C12.912 10.0342 12.5855 10.0948 12.2273 10.0948Z" fill="#357F8C"/>
<path d="M15.6095 25V19.8492H17.3791C17.7583 19.8492 18.1006 19.9019 18.4061 20.0072C18.7168 20.1073 18.9643 20.2784 19.1487 20.5207C19.333 20.763 19.4252 21.0921 19.4252 21.5082C19.4252 21.9085 19.333 22.2376 19.1487 22.4957C18.9643 22.7538 18.7194 22.946 18.414 23.0724C18.1085 23.1935 17.7741 23.2541 17.4107 23.2541H16.7708V25H15.6095ZM16.7708 22.3298H17.3396C17.9716 22.3298 18.2876 22.0559 18.2876 21.5082C18.2876 21.2396 18.2033 21.05 18.0348 20.9394C17.8662 20.8288 17.624 20.7735 17.308 20.7735H16.7708V22.3298Z" fill="#357F8C"/>
<path d="M20.3155 25V19.8492H21.5084L22.8514 22.4088L23.357 23.5464H23.3886C23.3676 23.2725 23.3386 22.9671 23.3017 22.63C23.2649 22.2929 23.2464 21.9717 23.2464 21.6662V19.8492H24.3524V25H23.1595L21.8165 22.4325L21.3109 21.3107H21.2793C21.3057 21.5951 21.3346 21.9006 21.3662 22.2271C21.4031 22.5536 21.4215 22.8696 21.4215 23.1751V25H20.3155Z" fill="#357F8C"/>
<path d="M27.8445 25.0948C27.3758 25.0948 26.9492 24.9947 26.5647 24.7946C26.1855 24.5945 25.8827 24.2995 25.6562 23.9098C25.435 23.5148 25.3244 23.0303 25.3244 22.4562C25.3244 21.8874 25.4377 21.4029 25.6641 21.0026C25.8959 20.5971 26.2013 20.289 26.5805 20.0783C26.9597 19.8624 27.3784 19.7544 27.8366 19.7544C28.2106 19.7544 28.5318 19.8229 28.8004 19.9598C29.069 20.0967 29.2876 20.2521 29.4561 20.4259L28.8478 21.1685C28.7162 21.0526 28.5766 20.9552 28.4291 20.8762C28.2817 20.7972 28.0973 20.7577 27.8761 20.7577C27.4759 20.7577 27.1493 20.9052 26.8965 21.2001C26.6437 21.495 26.5173 21.9006 26.5173 22.4167C26.5173 22.9434 26.6385 23.3542 26.8807 23.6491C27.123 23.944 27.4838 24.0915 27.963 24.0915C28.0684 24.0915 28.1711 24.0783 28.2711 24.052C28.3712 24.0257 28.4528 23.9862 28.516 23.9335V23.0487H27.6628V22.1007H29.543V24.4707C29.364 24.6445 29.1243 24.792 28.8241 24.9131C28.5292 25.0342 28.2027 25.0948 27.8445 25.0948Z" fill="#357F8C"/>
</svg>
