<svg aria-hidden="true" style="position: absolute; width: 0; height: 0; overflow: hidden;" version="1.1" xmlns="http://www.w3.org/2000/svg" xmlns:xlink="http://www.w3.org/1999/xlink">
<defs>
<symbol id="icon-folder-zip" viewBox="0 0 24 24">
<path d="M20 6h-8l-2-2h-6c-1.1 0-1.99 0.9-1.99 2l-0.010 12c0 1.1 0.9 2 2 2h16c1.1 0 2-0.9 2-2v-10c0-1.1-0.9-2-2-2zM18 12h-2v2h2v2h-2v2h-2v-2h2v-2h-2v-2h2v-2h-2v-2h2v2h2v2z"></path>
</symbol>
<symbol id="icon-file-open" viewBox="0 0 24 24">
<path d="M14 2h-8c-1.1 0-2 0.9-2 2v16c0 1.1 0.89 2 1.99 2h9.010v-8h5v-6l-6-6zM13 9v-5.5l5.5 5.5h-5.5zM17 21.66v-5.66h5.66v2h-2.24l2.95 2.95-1.41 1.41-2.96-2.95v2.24h-2v0.010z"></path>
</symbol>
<symbol id="icon-file_download" viewBox="0 0 24 24">
<path d="M5.016 18h13.969v2.016h-13.969v-2.016zM18.984 9l-6.984 6.984-6.984-6.984h3.984v-6h6v6h3.984z"></path>
</symbol>
<symbol id="icon-arrow_forward_ios" viewBox="0 0 24 24">
<path d="M5.859 4.125l2.156-2.109 9.984 9.984-9.984 9.984-2.156-2.109 7.922-7.875z"></path>
</symbol>
<symbol id="icon-school" viewBox="0 0 24 24">
<path d="M12 3l11.016 6v8.016h-2.016v-6.938l-9 4.922-11.016-6zM5.016 13.172l6.984 3.844 6.984-3.844v4.031l-6.984 3.797-6.984-3.797v-4.031z"></path>
</symbol>
<symbol id="icon-build" viewBox="0 0 24 24">
<path d="M22.688 18.984q0.328 0.188 0.305 0.633t-0.398 0.773l-2.297 2.297q-0.703 0.703-1.406 0l-9.094-9.094q-1.688 0.703-3.586 0.305t-3.305-1.805q-1.5-1.5-1.875-3.563t0.563-3.844l4.406 4.313 3-3-4.313-4.313q1.781-0.844 3.844-0.516t3.563 1.828q1.406 1.406 1.805 3.305t-0.305 3.586z"></path>
</symbol>
<symbol id="icon-description" viewBox="0 0 24 24">
<path d="M12.984 9h5.531l-5.531-5.484v5.484zM15.984 14.016v-2.016h-7.969v2.016h7.969zM15.984 18v-2.016h-7.969v2.016h7.969zM14.016 2.016l6 6v12q0 0.797-0.609 1.383t-1.406 0.586h-12q-0.797 0-1.406-0.586t-0.609-1.383l0.047-16.031q0-0.797 0.586-1.383t1.383-0.586h8.016z"></path>
</symbol>
<symbol id="icon-extension" viewBox="0 0 24 24">
<path d="M20.484 11.016q1.031 0 1.781 0.727t0.75 1.758-0.75 1.758-1.781 0.727h-1.5v4.031q0 0.797-0.586 1.383t-1.383 0.586h-3.797v-1.5q0-1.125-0.797-1.898t-1.922-0.773-1.922 0.773-0.797 1.898v1.5h-3.797q-0.797 0-1.383-0.586t-0.586-1.383v-3.797h1.5q1.125 0 1.898-0.797t0.773-1.922-0.773-1.922-1.898-0.797h-1.5v-3.797q0-0.797 0.586-1.383t1.383-0.586h4.031v-1.5q0-1.031 0.727-1.781t1.758-0.75 1.758 0.75 0.727 1.781v1.5h4.031q0.797 0 1.383 0.586t0.586 1.383v4.031h1.5z"></path>
</symbol>
<symbol id="icon-published_with_changes" viewBox="0 0 24 24">
<path d="M17.672 9.516l-7.078 7.078-4.266-4.219 1.453-1.406 2.813 2.813 5.672-5.672zM3.984 12q0-1.734 0.727-3.258t1.898-2.602l2.391 2.344v-6h-6l2.203 2.203q-1.453 1.359-2.32 3.258t-0.867 4.055q0 1.969 0.68 3.68t1.898 3.047 2.859 2.18 3.563 1.031v-2.016q-1.5-0.188-2.766-0.867t-2.227-1.758-1.5-2.414-0.539-2.883zM21.984 12q0-1.969-0.68-3.68t-1.898-3.047-2.859-2.18-3.563-1.031v2.016q1.5 0.188 2.766 0.867t2.227 1.758 1.5 2.414 0.539 2.883q0 1.734-0.727 3.258t-1.898 2.602l-2.391-2.344v6h6l-2.203-2.203q1.453-1.359 2.32-3.258t0.867-4.055z"></path>
</symbol>
</defs>
</svg>
