<svg width="224" height="128" viewBox="0 0 224 128" fill="none" xmlns="http://www.w3.org/2000/svg">
<path d="M10.9474 128V106.105M21.8947 117.053H0H21.8947Z" stroke="#64C9DA" stroke-width="1.68421" stroke-miterlimit="10"/>
<path d="M10.9474 74.1052V52.2105M21.8947 63.1579H0H21.8947Z" stroke="#64C9DA" stroke-width="1.68421" stroke-miterlimit="10"/>
<path d="M10.9474 21.8947V0M21.8947 10.9474H0H21.8947Z" stroke="#64C9DA" stroke-width="1.68421" stroke-miterlimit="10"/>
<path d="M10.9474 128V106.105M21.8947 117.053H0H21.8947Z" stroke="#CAE2E7" stroke-width="3.36842" stroke-miterlimit="10"/>
<path d="M10.9474 74.1052V52.2105M21.8947 63.1579H0H21.8947Z" stroke="#CAE2E7" stroke-width="3.36842" stroke-miterlimit="10"/>
<path d="M10.9474 21.8947V0M21.8947 10.9474H0H21.8947Z" stroke="#CAE2E7" stroke-width="3.36842" stroke-miterlimit="10"/>
<path d="M61.4737 128V106.105M72.421 117.053H50.5263H72.421Z" stroke="#64C9DA" stroke-width="1.68421" stroke-miterlimit="10"/>
<path d="M61.4737 74.1052V52.2105M72.421 63.1579H50.5263H72.421Z" stroke="#64C9DA" stroke-width="1.68421" stroke-miterlimit="10"/>
<path d="M61.4737 21.8947V0M72.421 10.9474H50.5263H72.421Z" stroke="#64C9DA" stroke-width="1.68421" stroke-miterlimit="10"/>
<path d="M61.4737 128V106.105M72.421 117.053H50.5263H72.421Z" stroke="#CAE2E7" stroke-width="3.36842" stroke-miterlimit="10"/>
<path d="M61.4737 74.1052V52.2105M72.421 63.1579H50.5263H72.421Z" stroke="#CAE2E7" stroke-width="3.36842" stroke-miterlimit="10"/>
<path d="M61.4737 21.8947V0M72.421 10.9474H50.5263H72.421Z" stroke="#CAE2E7" stroke-width="3.36842" stroke-miterlimit="10"/>
<path d="M112 74.1052V52.2105M122.947 63.1579H101.053H122.947Z" stroke="#64C9DA" stroke-width="1.68421" stroke-miterlimit="10"/>
<path d="M112 21.8947V0M122.947 10.9474H101.053H122.947Z" stroke="#64C9DA" stroke-width="1.68421" stroke-miterlimit="10"/>
<path d="M112 74.1052V52.2105M122.947 63.1579H101.053H122.947Z" stroke="#CAE2E7" stroke-width="3.36842" stroke-miterlimit="10"/>
<path d="M112 21.8947V0M122.947 10.9474H101.053H122.947Z" stroke="#CAE2E7" stroke-width="3.36842" stroke-miterlimit="10"/>
<path d="M162.526 74.1052V52.2105M173.474 63.1579H151.579H173.474Z" stroke="#64C9DA" stroke-width="1.68421" stroke-miterlimit="10"/>
<path d="M162.526 21.8947V0M173.474 10.9474H151.579H173.474Z" stroke="#64C9DA" stroke-width="1.68421" stroke-miterlimit="10"/>
<path d="M162.526 74.1052V52.2105M173.474 63.1579H151.579H173.474Z" stroke="#CAE2E7" stroke-width="3.36842" stroke-miterlimit="10"/>
<path d="M162.526 21.8947V0M173.474 10.9474H151.579H173.474Z" stroke="#CAE2E7" stroke-width="3.36842" stroke-miterlimit="10"/>
<path d="M213.053 74.1052V52.2105M224 63.1579H202.105H224Z" stroke="#64C9DA" stroke-width="1.68421" stroke-miterlimit="10"/>
<path d="M213.053 21.8947V0M224 10.9474H202.105H224Z" stroke="#64C9DA" stroke-width="1.68421" stroke-miterlimit="10"/>
<path d="M213.053 74.1052V52.2105M224 63.1579H202.105H224Z" stroke="#CAE2E7" stroke-width="3.36842" stroke-miterlimit="10"/>
<path d="M213.053 21.8947V0M224 10.9474H202.105H224Z" stroke="#CAE2E7" stroke-width="3.36842" stroke-miterlimit="10"/>
</svg>
