<svg width="355" height="406" viewBox="0 0 355 406" fill="none" xmlns="http://www.w3.org/2000/svg">
<path d="M6 297.381C6 300.239 7.5248 302.88 10 304.309L173.474 398.691C175.949 400.12 178.998 400.12 181.474 398.691L344.947 304.309C347.422 302.88 348.947 300.239 348.947 297.381V108.619C348.947 105.761 347.422 103.12 344.947 101.691L181.474 7.30939C178.998 5.88034 175.949 5.88033 173.474 7.30939L10 101.691C7.52479 103.12 6 105.761 6 108.619V297.381Z" stroke="#357F8C" stroke-width="10.5263" stroke-miterlimit="10"/>
<rect x="33" y="59" width="288" height="288" rx="3.27273" fill="#292B2C"/>
<rect x="39.5454" y="206.273" width="134.182" height="134.182" rx="3.27273" fill="#D9CA4A"/>
<rect x="180.273" y="206.273" width="134.182" height="134.182" rx="3.27273" fill="#64C9DA"/>
<rect x="39.5454" y="65.5454" width="134.182" height="134.182" rx="3.27273" fill="#64C9DA"/>
<rect x="180.273" y="65.5454" width="134.182" height="134.182" rx="3.27273" fill="#D979A4"/>
<path d="M89.2391 294.616C84.4085 294.616 80.8543 292.554 78.5765 288.431L82.1111 285.956C82.9751 287.488 83.9569 288.607 85.0565 289.314C86.1562 289.982 87.3933 290.316 88.7678 290.316C90.8493 290.316 92.4005 289.687 93.4216 288.431C94.4427 287.135 94.9533 285.014 94.9533 282.068V255.265H99.9016V282.54C99.9016 284.739 99.5285 286.761 98.7823 288.607C98.0754 290.453 96.9365 291.926 95.3656 293.025C93.7947 294.086 91.7525 294.616 89.2391 294.616Z" fill="#8F863D"/>
<path d="M121.078 294.616C118.368 294.616 115.854 294.105 113.537 293.084C111.22 292.024 109.217 290.63 107.529 288.902L110.474 285.485C111.849 286.938 113.459 288.116 115.305 289.02C117.19 289.884 119.134 290.316 121.137 290.316C123.689 290.316 125.673 289.746 127.086 288.607C128.5 287.429 129.207 285.897 129.207 284.012C129.207 282.677 128.913 281.617 128.323 280.831C127.774 280.046 127.008 279.378 126.026 278.828C125.083 278.279 124.003 277.729 122.786 277.179L117.249 274.764C116.031 274.253 114.814 273.585 113.596 272.761C112.418 271.936 111.417 270.876 110.592 269.58C109.806 268.284 109.414 266.693 109.414 264.808C109.414 262.844 109.924 261.097 110.945 259.565C112.006 257.994 113.459 256.777 115.305 255.913C117.15 255.009 119.232 254.558 121.549 254.558C123.866 254.558 126.006 255.009 127.97 255.913C129.934 256.777 131.603 257.916 132.977 259.329L130.326 262.511C129.148 261.372 127.833 260.488 126.379 259.86C124.966 259.192 123.355 258.858 121.549 258.858C119.389 258.858 117.641 259.369 116.306 260.39C115.01 261.411 114.362 262.785 114.362 264.513C114.362 265.731 114.676 266.752 115.305 267.577C115.972 268.362 116.797 269.01 117.779 269.521C118.761 270.031 119.762 270.503 120.783 270.935L126.262 273.291C127.754 273.919 129.089 274.685 130.267 275.588C131.485 276.452 132.447 277.532 133.154 278.828C133.861 280.085 134.214 281.676 134.214 283.6C134.214 285.642 133.684 287.508 132.624 289.196C131.563 290.846 130.051 292.161 128.088 293.143C126.124 294.125 123.787 294.616 121.078 294.616Z" fill="#8F863D"/>
<path d="M220.102 153.889C216.881 153.889 213.995 153.103 211.442 151.532C208.929 149.922 206.926 147.625 205.433 144.64C203.98 141.655 203.254 138.062 203.254 133.86C203.254 129.697 204 126.123 205.492 123.138C206.985 120.153 209.027 117.856 211.619 116.246C214.211 114.636 217.137 113.831 220.396 113.831C222.753 113.831 224.834 114.321 226.641 115.303C228.447 116.246 229.9 117.345 231 118.602L228.349 121.783C227.328 120.684 226.169 119.8 224.873 119.132C223.577 118.465 222.105 118.131 220.455 118.131C218.02 118.131 215.88 118.779 214.034 120.075C212.227 121.332 210.814 123.119 209.793 125.436C208.811 127.753 208.32 130.521 208.32 133.742C208.32 136.962 208.811 139.77 209.793 142.166C210.774 144.522 212.149 146.348 213.916 147.644C215.723 148.94 217.843 149.588 220.278 149.588C222.124 149.588 223.774 149.196 225.227 148.41C226.68 147.625 228.015 146.564 229.233 145.229L231.942 148.292C230.411 150.06 228.683 151.434 226.758 152.416C224.834 153.398 222.615 153.889 220.102 153.889Z" fill="#955471"/>
<path d="M248.43 153.889C245.72 153.889 243.206 153.378 240.889 152.357C238.572 151.297 236.569 149.903 234.88 148.175L237.826 144.758C239.2 146.211 240.811 147.389 242.656 148.292C244.542 149.156 246.486 149.588 248.488 149.588C251.041 149.588 253.024 149.019 254.438 147.88C255.852 146.702 256.559 145.17 256.559 143.285C256.559 141.95 256.264 140.889 255.675 140.104C255.126 139.319 254.36 138.651 253.378 138.101C252.435 137.551 251.355 137.001 250.138 136.452L244.6 134.036C243.383 133.526 242.166 132.858 240.948 132.033C239.77 131.209 238.768 130.148 237.944 128.852C237.158 127.556 236.766 125.966 236.766 124.081C236.766 122.117 237.276 120.369 238.297 118.838C239.358 117.267 240.811 116.049 242.656 115.185C244.502 114.282 246.584 113.831 248.901 113.831C251.218 113.831 253.358 114.282 255.322 115.185C257.286 116.049 258.955 117.188 260.329 118.602L257.678 121.783C256.5 120.644 255.184 119.761 253.731 119.132C252.318 118.465 250.707 118.131 248.901 118.131C246.741 118.131 244.993 118.641 243.658 119.663C242.362 120.684 241.714 122.058 241.714 123.786C241.714 125.004 242.028 126.025 242.656 126.849C243.324 127.635 244.149 128.283 245.131 128.793C246.112 129.304 247.114 129.775 248.135 130.207L253.614 132.564C255.106 133.192 256.441 133.958 257.619 134.861C258.837 135.725 259.799 136.805 260.506 138.101C261.213 139.358 261.566 140.948 261.566 142.873C261.566 144.915 261.036 146.78 259.976 148.469C258.915 150.119 257.403 151.434 255.44 152.416C253.476 153.398 251.139 153.889 248.43 153.889Z" fill="#955471"/>
<path d="M279.092 153.889C276.382 153.889 273.869 153.378 271.552 152.357C269.235 151.297 267.232 149.903 265.543 148.175L268.489 144.758C269.863 146.211 271.473 147.389 273.319 148.292C275.204 149.156 277.148 149.588 279.151 149.588C281.704 149.588 283.687 149.019 285.101 147.88C286.515 146.702 287.222 145.17 287.222 143.285C287.222 141.95 286.927 140.889 286.338 140.104C285.788 139.319 285.022 138.651 284.041 138.101C283.098 137.551 282.018 137.001 280.801 136.452L275.263 134.036C274.046 133.526 272.828 132.858 271.611 132.033C270.433 131.209 269.431 130.148 268.606 128.852C267.821 127.556 267.428 125.966 267.428 124.081C267.428 122.117 267.939 120.369 268.96 118.838C270.02 117.267 271.473 116.049 273.319 115.185C275.165 114.282 277.246 113.831 279.563 113.831C281.881 113.831 284.021 114.282 285.985 115.185C287.948 116.049 289.617 117.188 290.992 118.602L288.341 121.783C287.163 120.644 285.847 119.761 284.394 119.132C282.98 118.465 281.37 118.131 279.563 118.131C277.403 118.131 275.656 118.641 274.321 119.663C273.025 120.684 272.377 122.058 272.377 123.786C272.377 125.004 272.691 126.025 273.319 126.849C273.987 127.635 274.811 128.283 275.793 128.793C276.775 129.304 277.777 129.775 278.798 130.207L284.276 132.564C285.769 133.192 287.104 133.958 288.282 134.861C289.499 135.725 290.462 136.805 291.169 138.101C291.875 139.358 292.229 140.948 292.229 142.873C292.229 144.915 291.699 146.78 290.638 148.469C289.578 150.119 288.066 151.434 286.102 152.416C284.139 153.398 281.802 153.889 279.092 153.889Z" fill="#955471"/>
<path d="M70.1109 153.889C65.2803 153.889 61.7262 151.827 59.4483 147.703L62.9829 145.229C63.8469 146.761 64.8287 147.88 65.9283 148.587C67.028 149.255 68.2651 149.588 69.6396 149.588C71.7211 149.588 73.2723 148.96 74.2934 147.703C75.3145 146.407 75.8251 144.287 75.8251 141.341V114.537H80.7734V141.812C80.7734 144.012 80.4003 146.034 79.6542 147.88C78.9472 149.726 77.8083 151.199 76.2374 152.298C74.6665 153.359 72.6243 153.889 70.1109 153.889Z" fill="#357F8C"/>
<path d="M91.2279 153.182V114.537H102.244C105.15 114.537 107.683 114.891 109.843 115.598C112.003 116.305 113.692 117.503 114.909 119.191C116.127 120.841 116.736 123.079 116.736 125.907C116.736 129.952 115.42 132.956 112.789 134.92C110.157 136.884 106.721 137.865 102.48 137.865H96.1174V153.182H91.2279ZM96.1174 133.86H101.89C105.268 133.86 107.762 133.231 109.372 131.975C111.021 130.679 111.846 128.656 111.846 125.907C111.846 123.119 110.982 121.194 109.254 120.134C107.565 119.034 105.032 118.484 101.655 118.484H96.1174V133.86Z" fill="#357F8C"/>
<path d="M139.793 153.889C136.416 153.889 133.411 153.103 130.78 151.532C128.149 149.922 126.087 147.625 124.594 144.64C123.102 141.655 122.356 138.062 122.356 133.86C122.356 129.697 123.122 126.123 124.653 123.138C126.185 120.153 128.286 117.856 130.957 116.246C133.627 114.636 136.671 113.831 140.088 113.831C142.758 113.831 144.997 114.341 146.803 115.362C148.649 116.344 150.122 117.424 151.221 118.602L148.512 121.783C147.53 120.762 146.391 119.898 145.095 119.191C143.799 118.484 142.169 118.131 140.205 118.131C137.613 118.131 135.355 118.779 133.431 120.075C131.506 121.332 130.014 123.119 128.954 125.436C127.933 127.753 127.422 130.521 127.422 133.742C127.422 138.612 128.522 142.48 130.721 145.347C132.96 148.175 136.141 149.588 140.264 149.588C141.639 149.588 142.954 149.392 144.211 148.999C145.468 148.567 146.469 147.998 147.216 147.291V137.217H139.027V133.153H151.693V149.412C150.475 150.708 148.826 151.788 146.744 152.652C144.702 153.476 142.385 153.889 139.793 153.889Z" fill="#357F8C"/>
<path d="M198.733 293.909V255.265H209.749C212.655 255.265 215.188 255.618 217.348 256.325C219.508 257.032 221.197 258.23 222.414 259.919C223.631 261.568 224.24 263.807 224.24 266.634C224.24 270.679 222.925 273.684 220.293 275.647C217.662 277.611 214.226 278.593 209.984 278.593H203.622V293.909H198.733ZM203.622 274.587H209.395C212.773 274.587 215.266 273.959 216.877 272.702C218.526 271.406 219.351 269.383 219.351 266.634C219.351 263.846 218.487 261.921 216.759 260.861C215.07 259.761 212.537 259.212 209.159 259.212H203.622V274.587Z" fill="#357F8C"/>
<path d="M232.099 293.909V255.265H237.165L251.127 279.535L255.309 287.547H255.545C255.427 285.583 255.29 283.561 255.132 281.479C255.015 279.359 254.956 277.277 254.956 275.235V255.265H259.61V293.909H254.543L240.523 269.58L236.34 261.627H236.105C236.262 263.551 236.399 265.535 236.517 267.577C236.674 269.619 236.753 271.661 236.753 273.703V293.909H232.099Z" fill="#357F8C"/>
<path d="M285.439 294.616C282.061 294.616 279.057 293.831 276.426 292.26C273.795 290.649 271.733 288.352 270.24 285.367C268.748 282.383 268.002 278.789 268.002 274.587C268.002 270.424 268.768 266.85 270.299 263.865C271.831 260.881 273.932 258.583 276.603 256.973C279.273 255.363 282.317 254.558 285.733 254.558C288.404 254.558 290.643 255.068 292.449 256.089C294.295 257.071 295.768 258.151 296.867 259.329L294.157 262.511C293.176 261.489 292.037 260.625 290.741 259.919C289.445 259.212 287.815 258.858 285.851 258.858C283.259 258.858 281.001 259.506 279.077 260.802C277.152 262.059 275.66 263.846 274.6 266.163C273.579 268.48 273.068 271.249 273.068 274.469C273.068 279.339 274.168 283.207 276.367 286.074C278.605 288.902 281.787 290.316 285.91 290.316C287.285 290.316 288.6 290.119 289.857 289.727C291.114 289.295 292.115 288.725 292.861 288.018V277.945H284.673V273.88H297.339V290.139C296.121 291.435 294.472 292.515 292.39 293.379C290.348 294.204 288.031 294.616 285.439 294.616Z" fill="#357F8C"/>
</svg>
