<svg width="56" height="768" viewBox="0 0 56 768" fill="none" xmlns="http://www.w3.org/2000/svg">
<rect x="4" width="4" height="768" fill="#ECF1F2"/>
<rect x="15" width="4" height="768" fill="#ECF1F2"/>
<rect x="48" width="4" height="768" fill="#ECF1F2"/>
<rect x="37" width="4" height="768" fill="#ECF1F2"/>
<rect x="26" width="4" height="768" fill="#ECF1F2"/>
<rect y="16" width="40" height="40" rx="4" fill="#D9CA4A"/>
<rect x="16" y="596" width="40" height="40" rx="4" fill="#D9CA4A"/>
<rect x="16" y="340" width="40" height="40" rx="4" fill="#D9CA4A"/>
<rect y="204" width="40" height="40" rx="4" fill="#D9CA4A"/>
<rect x="16" y="76" width="40" height="40" rx="4" fill="#D979A4"/>
<rect x="6" y="724" width="40" height="40" rx="4" fill="#D979A4"/>
<rect x="10" y="268" width="40" height="40" rx="4" fill="#64C9DA"/>
<rect x="8" y="660" width="40" height="40" rx="4" fill="#64C9DA"/>
<rect x="9" y="468" width="40" height="40" rx="4" fill="#64C9DA"/>
<rect y="404" width="40" height="40" rx="4" fill="#D979A4"/>
<rect x="4" y="532" width="40" height="40" rx="4" fill="#D979A4"/>
<rect x="4" y="144" width="40" height="40" rx="4" fill="#64C9DA"/>
<path d="M15.1004 42.192C14.3111 42.192 13.6444 42.0373 13.1004 41.728C12.5564 41.408 12.1031 40.9333 11.7404 40.304L13.3404 39.12C13.5324 39.472 13.7564 39.7333 14.0124 39.904C14.2684 40.0746 14.5298 40.16 14.7964 40.16C15.2231 40.16 15.5431 40.032 15.7564 39.776C15.9804 39.5093 16.0924 39.0293 16.0924 38.336V31.568H18.4444V38.528C18.4444 39.2 18.3271 39.8133 18.0924 40.368C17.8578 40.9226 17.4898 41.3653 16.9884 41.696C16.4978 42.0266 15.8684 42.192 15.1004 42.192Z" fill="#8F863D"/>
<path d="M24.0411 42.192C23.3584 42.192 22.6757 42.064 21.9931 41.808C21.3211 41.552 20.7184 41.1786 20.1851 40.688L21.5291 39.072C21.9024 39.392 22.3184 39.6533 22.7771 39.856C23.2357 40.0586 23.6784 40.16 24.1051 40.16C24.5957 40.16 24.9584 40.0693 25.1931 39.888C25.4384 39.7066 25.5611 39.4613 25.5611 39.152C25.5611 38.8213 25.4224 38.5813 25.1451 38.432C24.8784 38.272 24.5157 38.096 24.0571 37.904L22.6971 37.328C22.3451 37.1786 22.0091 36.9813 21.6891 36.736C21.3691 36.48 21.1077 36.1653 20.9051 35.792C20.7024 35.4186 20.6011 34.9813 20.6011 34.48C20.6011 33.904 20.7557 33.3813 21.0651 32.912C21.3851 32.4426 21.8224 32.0693 22.3771 31.792C22.9424 31.5146 23.5877 31.376 24.3131 31.376C24.9104 31.376 25.5077 31.4933 26.1051 31.728C26.7024 31.9626 27.2251 32.304 27.6731 32.752L26.4731 34.24C26.1317 33.9733 25.7904 33.7706 25.4491 33.632C25.1077 33.4826 24.7291 33.408 24.3131 33.408C23.9077 33.408 23.5824 33.4933 23.3371 33.664C23.1024 33.824 22.9851 34.0533 22.9851 34.352C22.9851 34.672 23.1344 34.912 23.4331 35.072C23.7424 35.232 24.1211 35.4026 24.5691 35.584L25.9131 36.128C26.5424 36.384 27.0437 36.736 27.4171 37.184C27.7904 37.632 27.9771 38.224 27.9771 38.96C27.9771 39.536 27.8224 40.0693 27.5131 40.56C27.2037 41.0506 26.7557 41.4453 26.1691 41.744C25.5824 42.0426 24.8731 42.192 24.0411 42.192Z" fill="#8F863D"/>
<path d="M31.1004 622.192C30.3111 622.192 29.6444 622.037 29.1004 621.728C28.5564 621.408 28.1031 620.933 27.7404 620.304L29.3404 619.12C29.5324 619.472 29.7564 619.733 30.0124 619.904C30.2684 620.075 30.5298 620.16 30.7964 620.16C31.2231 620.16 31.5431 620.032 31.7564 619.776C31.9804 619.509 32.0924 619.029 32.0924 618.336V611.568H34.4444V618.528C34.4444 619.2 34.3271 619.813 34.0924 620.368C33.8578 620.923 33.4898 621.365 32.9884 621.696C32.4978 622.027 31.8684 622.192 31.1004 622.192Z" fill="#8F863D"/>
<path d="M40.0411 622.192C39.3584 622.192 38.6757 622.064 37.9931 621.808C37.3211 621.552 36.7184 621.179 36.1851 620.688L37.5291 619.072C37.9024 619.392 38.3184 619.653 38.7771 619.856C39.2357 620.059 39.6784 620.16 40.1051 620.16C40.5957 620.16 40.9584 620.069 41.1931 619.888C41.4384 619.707 41.5611 619.461 41.5611 619.152C41.5611 618.821 41.4224 618.581 41.1451 618.432C40.8784 618.272 40.5157 618.096 40.0571 617.904L38.6971 617.328C38.3451 617.179 38.0091 616.981 37.6891 616.736C37.3691 616.48 37.1077 616.165 36.9051 615.792C36.7024 615.419 36.6011 614.981 36.6011 614.48C36.6011 613.904 36.7557 613.381 37.0651 612.912C37.3851 612.443 37.8224 612.069 38.3771 611.792C38.9424 611.515 39.5877 611.376 40.3131 611.376C40.9104 611.376 41.5077 611.493 42.1051 611.728C42.7024 611.963 43.2251 612.304 43.6731 612.752L42.4731 614.24C42.1317 613.973 41.7904 613.771 41.4491 613.632C41.1077 613.483 40.7291 613.408 40.3131 613.408C39.9077 613.408 39.5824 613.493 39.3371 613.664C39.1024 613.824 38.9851 614.053 38.9851 614.352C38.9851 614.672 39.1344 614.912 39.4331 615.072C39.7424 615.232 40.1211 615.403 40.5691 615.584L41.9131 616.128C42.5424 616.384 43.0437 616.736 43.4171 617.184C43.7904 617.632 43.9771 618.224 43.9771 618.96C43.9771 619.536 43.8224 620.069 43.5131 620.56C43.2037 621.051 42.7557 621.445 42.1691 621.744C41.5824 622.043 40.8731 622.192 40.0411 622.192Z" fill="#8F863D"/>
<path d="M20.3114 366.192C19.522 366.192 18.8554 366.037 18.3114 365.728C17.7674 365.408 17.314 364.933 16.9514 364.304L18.5514 363.12C18.7434 363.472 18.9674 363.733 19.2234 363.904C19.4794 364.075 19.7407 364.16 20.0074 364.16C20.434 364.16 20.754 364.032 20.9674 363.776C21.1914 363.509 21.3034 363.029 21.3034 362.336V355.568H23.6554V362.528C23.6554 363.2 23.538 363.813 23.3034 364.368C23.0687 364.923 22.7007 365.365 22.1994 365.696C21.7087 366.027 21.0794 366.192 20.3114 366.192Z" fill="#8F863D"/>
<path d="M29.252 366.192C28.5693 366.192 27.8867 366.064 27.204 365.808C26.532 365.552 25.9293 365.179 25.396 364.688L26.74 363.072C27.1133 363.392 27.5293 363.653 27.988 363.856C28.4467 364.059 28.8893 364.16 29.316 364.16C29.8067 364.16 30.1693 364.069 30.404 363.888C30.6493 363.707 30.772 363.461 30.772 363.152C30.772 362.821 30.6333 362.581 30.356 362.432C30.0893 362.272 29.7267 362.096 29.268 361.904L27.908 361.328C27.556 361.179 27.22 360.981 26.9 360.736C26.58 360.48 26.3187 360.165 26.116 359.792C25.9133 359.419 25.812 358.981 25.812 358.48C25.812 357.904 25.9667 357.381 26.276 356.912C26.596 356.443 27.0333 356.069 27.588 355.792C28.1533 355.515 28.7987 355.376 29.524 355.376C30.1213 355.376 30.7187 355.493 31.316 355.728C31.9133 355.963 32.436 356.304 32.884 356.752L31.684 358.24C31.3427 357.973 31.0013 357.771 30.66 357.632C30.3187 357.483 29.94 357.408 29.524 357.408C29.1187 357.408 28.7933 357.493 28.548 357.664C28.3133 357.824 28.196 358.053 28.196 358.352C28.196 358.672 28.3453 358.912 28.644 359.072C28.9533 359.232 29.332 359.403 29.78 359.584L31.124 360.128C31.7533 360.384 32.2547 360.736 32.628 361.184C33.0013 361.632 33.188 362.224 33.188 362.96C33.188 363.536 33.0333 364.069 32.724 364.56C32.4147 365.051 31.9667 365.445 31.38 365.744C30.7933 366.043 30.084 366.192 29.252 366.192Z" fill="#8F863D"/>
<path d="M39.1986 366.192C38.26 366.192 37.4333 365.973 36.7186 365.536C36.0146 365.099 35.46 364.475 35.0546 363.664C34.66 362.843 34.4626 361.867 34.4626 360.736C34.4626 359.595 34.66 358.629 35.0546 357.84C35.46 357.04 36.0146 356.432 36.7186 356.016C37.4333 355.589 38.26 355.376 39.1986 355.376C40.1373 355.376 40.9586 355.589 41.6626 356.016C42.3773 356.432 42.932 357.04 43.3266 357.84C43.732 358.64 43.9346 359.605 43.9346 360.736C43.9346 361.867 43.732 362.843 43.3266 363.664C42.932 364.475 42.3773 365.099 41.6626 365.536C40.9586 365.973 40.1373 366.192 39.1986 366.192ZM39.1986 364.16C39.9133 364.16 40.4786 363.851 40.8946 363.232C41.3106 362.613 41.5186 361.781 41.5186 360.736C41.5186 359.691 41.3106 358.875 40.8946 358.288C40.4786 357.701 39.9133 357.408 39.1986 357.408C38.484 357.408 37.9186 357.701 37.5026 358.288C37.0866 358.875 36.8786 359.691 36.8786 360.736C36.8786 361.781 37.0866 362.613 37.5026 363.232C37.9186 363.851 38.484 364.16 39.1986 364.16Z" fill="#8F863D"/>
<path d="M45.8961 366V355.568H48.3121L51.0321 360.752L52.0561 363.056H52.1201C52.0775 362.501 52.0188 361.883 51.9441 361.2C51.8695 360.517 51.8321 359.867 51.8321 359.248V355.568H54.0721V366H51.6561L48.9361 360.8L47.9121 358.528H47.8481C47.9015 359.104 47.9601 359.723 48.0241 360.384C48.0988 361.045 48.1361 361.685 48.1361 362.304V366H45.8961Z" fill="#8F863D"/>
<path d="M10.502 230.192C9.81933 230.192 9.13666 230.064 8.454 229.808C7.782 229.552 7.17933 229.179 6.646 228.688L7.99 227.072C8.36333 227.392 8.77933 227.653 9.238 227.856C9.69666 228.059 10.1393 228.16 10.566 228.16C11.0567 228.16 11.4193 228.069 11.654 227.888C11.8993 227.707 12.022 227.461 12.022 227.152C12.022 226.821 11.8833 226.581 11.606 226.432C11.3393 226.272 10.9767 226.096 10.518 225.904L9.158 225.328C8.806 225.179 8.47 224.981 8.15 224.736C7.83 224.48 7.56866 224.165 7.366 223.792C7.16333 223.419 7.062 222.981 7.062 222.48C7.062 221.904 7.21666 221.381 7.526 220.912C7.846 220.443 8.28333 220.069 8.838 219.792C9.40333 219.515 10.0487 219.376 10.774 219.376C11.3713 219.376 11.9687 219.493 12.566 219.728C13.1633 219.963 13.686 220.304 14.134 220.752L12.934 222.24C12.5927 221.973 12.2513 221.771 11.91 221.632C11.5687 221.483 11.19 221.408 10.774 221.408C10.3687 221.408 10.0433 221.493 9.798 221.664C9.56333 221.824 9.446 222.053 9.446 222.352C9.446 222.672 9.59533 222.912 9.894 223.072C10.2033 223.232 10.582 223.403 11.03 223.584L12.374 224.128C13.0033 224.384 13.5047 224.736 13.878 225.184C14.2513 225.632 14.438 226.224 14.438 226.96C14.438 227.536 14.2833 228.069 13.974 228.56C13.6647 229.051 13.2167 229.445 12.63 229.744C12.0433 230.043 11.334 230.192 10.502 230.192Z" fill="#8F863D"/>
<path d="M18.0166 230L14.8646 219.568H17.3606L18.6086 224.432C18.7686 224.997 18.9073 225.552 19.0246 226.096C19.1526 226.64 19.2966 227.2 19.4566 227.776H19.5206C19.67 227.2 19.8086 226.64 19.9366 226.096C20.0646 225.552 20.2033 224.997 20.3526 224.432L21.5846 219.568H23.9846L20.8486 230H18.0166Z" fill="#8F863D"/>
<path d="M29.551 230.192C28.6017 230.192 27.7377 229.989 26.959 229.584C26.191 229.179 25.5777 228.581 25.119 227.792C24.671 226.992 24.447 226.011 24.447 224.848C24.447 223.696 24.6763 222.715 25.135 221.904C25.6043 221.083 26.223 220.459 26.991 220.032C27.759 219.595 28.607 219.376 29.535 219.376C30.2923 219.376 30.943 219.515 31.487 219.792C32.031 220.069 32.4737 220.384 32.815 220.736L31.583 222.24C31.3163 222.005 31.0337 221.808 30.735 221.648C30.4363 221.488 30.063 221.408 29.615 221.408C28.8043 221.408 28.143 221.707 27.631 222.304C27.119 222.901 26.863 223.723 26.863 224.768C26.863 225.835 27.1083 226.667 27.599 227.264C28.0897 227.861 28.8203 228.16 29.791 228.16C30.0043 228.16 30.2123 228.133 30.415 228.08C30.6177 228.027 30.783 227.947 30.911 227.84V226.048H29.183V224.128H32.991V228.928C32.6283 229.28 32.143 229.579 31.535 229.824C30.9377 230.069 30.2763 230.192 29.551 230.192Z" fill="#8F863D"/>
<path d="M28.4044 102.192C27.5297 102.192 26.7244 101.989 25.9884 101.584C25.2524 101.179 24.6604 100.581 24.2124 99.792C23.775 98.992 23.5564 98.0106 23.5564 96.848C23.5564 95.696 23.7804 94.7146 24.2284 93.904C24.687 93.0826 25.2897 92.4586 26.0364 92.032C26.7937 91.5946 27.6097 91.376 28.4844 91.376C29.1564 91.376 29.759 91.5146 30.2924 91.792C30.8257 92.0586 31.2684 92.3733 31.6204 92.736L30.3724 94.24C30.1057 93.9946 29.823 93.7973 29.5244 93.648C29.2364 93.488 28.9057 93.408 28.5324 93.408C28.063 93.408 27.631 93.5413 27.2364 93.808C26.8524 94.0746 26.543 94.4586 26.3084 94.96C26.0844 95.4613 25.9724 96.064 25.9724 96.768C25.9724 97.8346 26.2017 98.6666 26.6604 99.264C27.119 99.8613 27.7324 100.16 28.5004 100.16C28.927 100.16 29.3057 100.064 29.6364 99.872C29.9777 99.68 30.2764 99.4506 30.5324 99.184L31.7804 100.656C30.9057 101.68 29.7804 102.192 28.4044 102.192Z" fill="#955471"/>
<path d="M36.0957 102.192C35.4131 102.192 34.7304 102.064 34.0477 101.808C33.3757 101.552 32.7731 101.179 32.2397 100.688L33.5837 99.072C33.9571 99.392 34.3731 99.6533 34.8317 99.856C35.2904 100.059 35.7331 100.16 36.1597 100.16C36.6504 100.16 37.0131 100.069 37.2477 99.888C37.4931 99.7066 37.6157 99.4613 37.6157 99.152C37.6157 98.8213 37.4771 98.5813 37.1997 98.432C36.9331 98.272 36.5704 98.096 36.1117 97.904L34.7517 97.328C34.3997 97.1786 34.0637 96.9813 33.7437 96.736C33.4237 96.48 33.1624 96.1653 32.9597 95.792C32.7571 95.4186 32.6557 94.9813 32.6557 94.48C32.6557 93.904 32.8104 93.3813 33.1197 92.912C33.4397 92.4426 33.8771 92.0693 34.4317 91.792C34.9971 91.5146 35.6424 91.376 36.3677 91.376C36.9651 91.376 37.5624 91.4933 38.1597 91.728C38.7571 91.9626 39.2797 92.304 39.7277 92.752L38.5277 94.24C38.1864 93.9733 37.8451 93.7706 37.5037 93.632C37.1624 93.4826 36.7837 93.408 36.3677 93.408C35.9624 93.408 35.6371 93.4933 35.3917 93.664C35.1571 93.824 35.0397 94.0533 35.0397 94.352C35.0397 94.672 35.1891 94.912 35.4877 95.072C35.7971 95.232 36.1757 95.4026 36.6237 95.584L37.9677 96.128C38.5971 96.384 39.0984 96.736 39.4717 97.184C39.8451 97.632 40.0317 98.224 40.0317 98.96C40.0317 99.536 39.8771 100.069 39.5677 100.56C39.2584 101.051 38.8104 101.445 38.2237 101.744C37.6371 102.043 36.9277 102.192 36.0957 102.192Z" fill="#955471"/>
<path d="M44.7051 102.192C44.0225 102.192 43.3398 102.064 42.6571 101.808C41.9851 101.552 41.3825 101.179 40.8491 100.688L42.1931 99.072C42.5665 99.392 42.9825 99.6533 43.4411 99.856C43.8998 100.059 44.3425 100.16 44.7691 100.16C45.2598 100.16 45.6225 100.069 45.8571 99.888C46.1025 99.7066 46.2251 99.4613 46.2251 99.152C46.2251 98.8213 46.0865 98.5813 45.8091 98.432C45.5425 98.272 45.1798 98.096 44.7211 97.904L43.3611 97.328C43.0091 97.1786 42.6731 96.9813 42.3531 96.736C42.0331 96.48 41.7718 96.1653 41.5691 95.792C41.3665 95.4186 41.2651 94.9813 41.2651 94.48C41.2651 93.904 41.4198 93.3813 41.7291 92.912C42.0491 92.4426 42.4865 92.0693 43.0411 91.792C43.6065 91.5146 44.2518 91.376 44.9771 91.376C45.5745 91.376 46.1718 91.4933 46.7691 91.728C47.3665 91.9626 47.8891 92.304 48.3371 92.752L47.1371 94.24C46.7958 93.9733 46.4545 93.7706 46.1131 93.632C45.7718 93.4826 45.3931 93.408 44.9771 93.408C44.5718 93.408 44.2465 93.4933 44.0011 93.664C43.7665 93.824 43.6491 94.0533 43.6491 94.352C43.6491 94.672 43.7985 94.912 44.0971 95.072C44.4065 95.232 44.7851 95.4026 45.2331 95.584L46.5771 96.128C47.2065 96.384 47.7078 96.736 48.0811 97.184C48.4545 97.632 48.6411 98.224 48.6411 98.96C48.6411 99.536 48.4865 100.069 48.1771 100.56C47.8678 101.051 47.4198 101.445 46.8331 101.744C46.2465 102.043 45.5371 102.192 44.7051 102.192Z" fill="#955471"/>
<path d="M12.7911 750.192C12.1084 750.192 11.4257 750.064 10.7431 749.808C10.0711 749.552 9.46839 749.179 8.93506 748.688L10.2791 747.072C10.6524 747.392 11.0684 747.653 11.5271 747.856C11.9857 748.059 12.4284 748.16 12.8551 748.16C13.3457 748.16 13.7084 748.069 13.9431 747.888C14.1884 747.707 14.3111 747.461 14.3111 747.152C14.3111 746.821 14.1724 746.581 13.8951 746.432C13.6284 746.272 13.2657 746.096 12.8071 745.904L11.4471 745.328C11.0951 745.179 10.7591 744.981 10.4391 744.736C10.1191 744.48 9.85773 744.165 9.65506 743.792C9.45239 743.419 9.35106 742.981 9.35106 742.48C9.35106 741.904 9.50573 741.381 9.81506 740.912C10.1351 740.443 10.5724 740.069 11.1271 739.792C11.6924 739.515 12.3377 739.376 13.0631 739.376C13.6604 739.376 14.2577 739.493 14.8551 739.728C15.4524 739.963 15.9751 740.304 16.4231 740.752L15.2231 742.24C14.8817 741.973 14.5404 741.771 14.1991 741.632C13.8577 741.483 13.4791 741.408 13.0631 741.408C12.6577 741.408 12.3324 741.493 12.0871 741.664C11.8524 741.824 11.7351 742.053 11.7351 742.352C11.7351 742.672 11.8844 742.912 12.1831 743.072C12.4924 743.232 12.8711 743.403 13.3191 743.584L14.6631 744.128C15.2924 744.384 15.7937 744.736 16.1671 745.184C16.5404 745.632 16.7271 746.224 16.7271 746.96C16.7271 747.536 16.5724 748.069 16.2631 748.56C15.9537 749.051 15.5057 749.445 14.9191 749.744C14.3324 750.043 13.6231 750.192 12.7911 750.192Z" fill="#955471"/>
<path d="M22.8497 750.192C21.975 750.192 21.1697 749.989 20.4337 749.584C19.6977 749.179 19.1057 748.581 18.6577 747.792C18.2204 746.992 18.0017 746.011 18.0017 744.848C18.0017 743.696 18.2257 742.715 18.6737 741.904C19.1324 741.083 19.735 740.459 20.4817 740.032C21.239 739.595 22.055 739.376 22.9297 739.376C23.6017 739.376 24.2044 739.515 24.7377 739.792C25.271 740.059 25.7137 740.373 26.0657 740.736L24.8177 742.24C24.551 741.995 24.2684 741.797 23.9697 741.648C23.6817 741.488 23.351 741.408 22.9777 741.408C22.5084 741.408 22.0764 741.541 21.6817 741.808C21.2977 742.075 20.9883 742.459 20.7537 742.96C20.5297 743.461 20.4177 744.064 20.4177 744.768C20.4177 745.835 20.647 746.667 21.1057 747.264C21.5644 747.861 22.1777 748.16 22.9457 748.16C23.3724 748.16 23.751 748.064 24.0817 747.872C24.423 747.68 24.7217 747.451 24.9777 747.184L26.2257 748.656C25.351 749.68 24.2257 750.192 22.8497 750.192Z" fill="#955471"/>
<path d="M30.5411 750.192C29.8584 750.192 29.1757 750.064 28.4931 749.808C27.8211 749.552 27.2184 749.179 26.6851 748.688L28.0291 747.072C28.4024 747.392 28.8184 747.653 29.2771 747.856C29.7357 748.059 30.1784 748.16 30.6051 748.16C31.0957 748.16 31.4584 748.069 31.6931 747.888C31.9384 747.707 32.0611 747.461 32.0611 747.152C32.0611 746.821 31.9224 746.581 31.6451 746.432C31.3784 746.272 31.0157 746.096 30.5571 745.904L29.1971 745.328C28.8451 745.179 28.5091 744.981 28.1891 744.736C27.8691 744.48 27.6077 744.165 27.4051 743.792C27.2024 743.419 27.1011 742.981 27.1011 742.48C27.1011 741.904 27.2557 741.381 27.5651 740.912C27.8851 740.443 28.3224 740.069 28.8771 739.792C29.4424 739.515 30.0877 739.376 30.8131 739.376C31.4104 739.376 32.0077 739.493 32.6051 739.728C33.2024 739.963 33.7251 740.304 34.1731 740.752L32.9731 742.24C32.6317 741.973 32.2904 741.771 31.9491 741.632C31.6077 741.483 31.2291 741.408 30.8131 741.408C30.4077 741.408 30.0824 741.493 29.8371 741.664C29.6024 741.824 29.4851 742.053 29.4851 742.352C29.4851 742.672 29.6344 742.912 29.9331 743.072C30.2424 743.232 30.6211 743.403 31.0691 743.584L32.4131 744.128C33.0424 744.384 33.5437 744.736 33.9171 745.184C34.2904 745.632 34.4771 746.224 34.4771 746.96C34.4771 747.536 34.3224 748.069 34.0131 748.56C33.7037 749.051 33.2557 749.445 32.6691 749.744C32.0824 750.043 31.3731 750.192 30.5411 750.192Z" fill="#955471"/>
<path d="M39.1504 750.192C38.4678 750.192 37.7851 750.064 37.1024 749.808C36.4304 749.552 35.8278 749.179 35.2944 748.688L36.6384 747.072C37.0118 747.392 37.4278 747.653 37.8864 747.856C38.3451 748.059 38.7878 748.16 39.2144 748.16C39.7051 748.16 40.0678 748.069 40.3024 747.888C40.5478 747.707 40.6704 747.461 40.6704 747.152C40.6704 746.821 40.5318 746.581 40.2544 746.432C39.9878 746.272 39.6251 746.096 39.1664 745.904L37.8064 745.328C37.4544 745.179 37.1184 744.981 36.7984 744.736C36.4784 744.48 36.2171 744.165 36.0144 743.792C35.8118 743.419 35.7104 742.981 35.7104 742.48C35.7104 741.904 35.8651 741.381 36.1744 740.912C36.4944 740.443 36.9318 740.069 37.4864 739.792C38.0518 739.515 38.6971 739.376 39.4224 739.376C40.0198 739.376 40.6171 739.493 41.2144 739.728C41.8118 739.963 42.3344 740.304 42.7824 740.752L41.5824 742.24C41.2411 741.973 40.8998 741.771 40.5584 741.632C40.2171 741.483 39.8384 741.408 39.4224 741.408C39.0171 741.408 38.6918 741.493 38.4464 741.664C38.2118 741.824 38.0944 742.053 38.0944 742.352C38.0944 742.672 38.2438 742.912 38.5424 743.072C38.8518 743.232 39.2304 743.403 39.6784 743.584L41.0224 744.128C41.6518 744.384 42.1531 744.736 42.5264 745.184C42.8998 745.632 43.0864 746.224 43.0864 746.96C43.0864 747.536 42.9318 748.069 42.6224 748.56C42.3131 749.051 41.8651 749.445 41.2784 749.744C40.6918 750.043 39.9824 750.192 39.1504 750.192Z" fill="#955471"/>
<path d="M16.0446 294V283.568H19.6286C20.3966 283.568 21.0899 283.675 21.7086 283.888C22.3379 284.091 22.8392 284.437 23.2126 284.928C23.5859 285.419 23.7726 286.085 23.7726 286.928C23.7726 287.739 23.5859 288.405 23.2126 288.928C22.8392 289.451 22.3432 289.84 21.7246 290.096C21.1059 290.341 20.4286 290.464 19.6926 290.464H18.3966V294H16.0446ZM18.3966 288.592H19.5486C20.8286 288.592 21.4686 288.037 21.4686 286.928C21.4686 286.384 21.2979 286 20.9566 285.776C20.6152 285.552 20.1246 285.44 19.4846 285.44H18.3966V288.592Z" fill="#357F8C"/>
<path d="M25.5758 294V283.568H27.9918L30.7118 288.752L31.7358 291.056H31.7998C31.7571 290.501 31.6985 289.883 31.6238 289.2C31.5491 288.517 31.5118 287.867 31.5118 287.248V283.568H33.7518V294H31.3358L28.6158 288.8L27.5918 286.528H27.5278C27.5811 287.104 27.6398 287.723 27.7038 288.384C27.7785 289.045 27.8158 289.685 27.8158 290.304V294H25.5758Z" fill="#357F8C"/>
<path d="M40.8244 294.192C39.8751 294.192 39.0111 293.989 38.2324 293.584C37.4644 293.179 36.8511 292.581 36.3924 291.792C35.9444 290.992 35.7204 290.011 35.7204 288.848C35.7204 287.696 35.9498 286.715 36.4084 285.904C36.8778 285.083 37.4964 284.459 38.2644 284.032C39.0324 283.595 39.8804 283.376 40.8084 283.376C41.5658 283.376 42.2164 283.515 42.7604 283.792C43.3044 284.069 43.7471 284.384 44.0884 284.736L42.8564 286.24C42.5898 286.005 42.3071 285.808 42.0084 285.648C41.7098 285.488 41.3364 285.408 40.8884 285.408C40.0778 285.408 39.4164 285.707 38.9044 286.304C38.3924 286.901 38.1364 287.723 38.1364 288.768C38.1364 289.835 38.3818 290.667 38.8724 291.264C39.3631 291.861 40.0938 292.16 41.0644 292.16C41.2778 292.16 41.4858 292.133 41.6884 292.08C41.8911 292.027 42.0564 291.947 42.1844 291.84V290.048H40.4564V288.128H44.2644V292.928C43.9018 293.28 43.4164 293.579 42.8084 293.824C42.2111 294.069 41.5498 294.192 40.8244 294.192Z" fill="#357F8C"/>
<path d="M14.0446 686V675.568H17.6286C18.3966 675.568 19.0899 675.675 19.7086 675.888C20.3379 676.091 20.8392 676.437 21.2126 676.928C21.5859 677.419 21.7726 678.085 21.7726 678.928C21.7726 679.739 21.5859 680.405 21.2126 680.928C20.8392 681.451 20.3432 681.84 19.7246 682.096C19.1059 682.341 18.4286 682.464 17.6926 682.464H16.3966V686H14.0446ZM16.3966 680.592H17.5486C18.8286 680.592 19.4686 680.037 19.4686 678.928C19.4686 678.384 19.2979 678 18.9566 677.776C18.6152 677.552 18.1246 677.44 17.4846 677.44H16.3966V680.592Z" fill="#357F8C"/>
<path d="M23.5758 686V675.568H25.9918L28.7118 680.752L29.7358 683.056H29.7998C29.7571 682.501 29.6985 681.883 29.6238 681.2C29.5491 680.517 29.5118 679.867 29.5118 679.248V675.568H31.7518V686H29.3358L26.6158 680.8L25.5918 678.528H25.5278C25.5811 679.104 25.6398 679.723 25.7038 680.384C25.7785 681.045 25.8158 681.685 25.8158 682.304V686H23.5758Z" fill="#357F8C"/>
<path d="M38.8244 686.192C37.8751 686.192 37.0111 685.989 36.2324 685.584C35.4644 685.179 34.8511 684.581 34.3924 683.792C33.9444 682.992 33.7204 682.011 33.7204 680.848C33.7204 679.696 33.9498 678.715 34.4084 677.904C34.8778 677.083 35.4964 676.459 36.2644 676.032C37.0324 675.595 37.8804 675.376 38.8084 675.376C39.5658 675.376 40.2164 675.515 40.7604 675.792C41.3044 676.069 41.7471 676.384 42.0884 676.736L40.8564 678.24C40.5898 678.005 40.3071 677.808 40.0084 677.648C39.7098 677.488 39.3364 677.408 38.8884 677.408C38.0778 677.408 37.4164 677.707 36.9044 678.304C36.3924 678.901 36.1364 679.723 36.1364 680.768C36.1364 681.835 36.3818 682.667 36.8724 683.264C37.3631 683.861 38.0938 684.16 39.0644 684.16C39.2778 684.16 39.4858 684.133 39.6884 684.08C39.8911 684.027 40.0564 683.947 40.1844 683.84V682.048H38.4564V680.128H42.2644V684.928C41.9018 685.28 41.4164 685.579 40.8084 685.824C40.2111 686.069 39.5498 686.192 38.8244 686.192Z" fill="#357F8C"/>
<path d="M18.6786 494.192C17.8892 494.192 17.2226 494.037 16.6786 493.728C16.1346 493.408 15.6812 492.933 15.3186 492.304L16.9186 491.12C17.1106 491.472 17.3346 491.733 17.5906 491.904C17.8466 492.075 18.1079 492.16 18.3746 492.16C18.8012 492.16 19.1212 492.032 19.3346 491.776C19.5586 491.509 19.6706 491.029 19.6706 490.336V483.568H22.0226V490.528C22.0226 491.2 21.9052 491.813 21.6706 492.368C21.4359 492.923 21.0679 493.365 20.5666 493.696C20.0759 494.027 19.4466 494.192 18.6786 494.192Z" fill="#357F8C"/>
<path d="M24.4352 494V483.568H28.0192C28.7872 483.568 29.4805 483.675 30.0992 483.888C30.7285 484.091 31.2299 484.437 31.6032 484.928C31.9765 485.419 32.1632 486.085 32.1632 486.928C32.1632 487.739 31.9765 488.405 31.6032 488.928C31.2299 489.451 30.7338 489.84 30.1152 490.096C29.4965 490.341 28.8192 490.464 28.0832 490.464H26.7872V494H24.4352ZM26.7872 488.592H27.9392C29.2192 488.592 29.8592 488.037 29.8592 486.928C29.8592 486.384 29.6885 486 29.3472 485.776C29.0059 485.552 28.5152 485.44 27.8752 485.44H26.7872V488.592Z" fill="#357F8C"/>
<path d="M38.5744 494.192C37.6251 494.192 36.7611 493.989 35.9824 493.584C35.2144 493.179 34.6011 492.581 34.1424 491.792C33.6944 490.992 33.4704 490.011 33.4704 488.848C33.4704 487.696 33.6998 486.715 34.1584 485.904C34.6278 485.083 35.2464 484.459 36.0144 484.032C36.7824 483.595 37.6304 483.376 38.5584 483.376C39.3158 483.376 39.9664 483.515 40.5104 483.792C41.0544 484.069 41.4971 484.384 41.8384 484.736L40.6064 486.24C40.3398 486.005 40.0571 485.808 39.7584 485.648C39.4598 485.488 39.0864 485.408 38.6384 485.408C37.8278 485.408 37.1664 485.707 36.6544 486.304C36.1424 486.901 35.8864 487.723 35.8864 488.768C35.8864 489.835 36.1318 490.667 36.6224 491.264C37.1131 491.861 37.8438 492.16 38.8144 492.16C39.0278 492.16 39.2358 492.133 39.4384 492.08C39.6411 492.027 39.8064 491.947 39.9344 491.84V490.048H38.2064V488.128H42.0144V492.928C41.6518 493.28 41.1664 493.579 40.5584 493.824C39.9611 494.069 39.2998 494.192 38.5744 494.192Z" fill="#357F8C"/>
<path d="M6.79106 430.192C6.10839 430.192 5.42573 430.064 4.74306 429.808C4.07106 429.552 3.46839 429.179 2.93506 428.688L4.27906 427.072C4.65239 427.392 5.06839 427.653 5.52706 427.856C5.98573 428.059 6.42839 428.16 6.85506 428.16C7.34573 428.16 7.70839 428.069 7.94306 427.888C8.18839 427.707 8.31106 427.461 8.31106 427.152C8.31106 426.821 8.17239 426.581 7.89506 426.432C7.62839 426.272 7.26573 426.096 6.80706 425.904L5.44706 425.328C5.09506 425.179 4.75906 424.981 4.43906 424.736C4.11906 424.48 3.85773 424.165 3.65506 423.792C3.45239 423.419 3.35106 422.981 3.35106 422.48C3.35106 421.904 3.50573 421.381 3.81506 420.912C4.13506 420.443 4.57239 420.069 5.12706 419.792C5.69239 419.515 6.33773 419.376 7.06306 419.376C7.66039 419.376 8.25773 419.493 8.85506 419.728C9.45239 419.963 9.97506 420.304 10.4231 420.752L9.22306 422.24C8.88173 421.973 8.54039 421.771 8.19906 421.632C7.85773 421.483 7.47906 421.408 7.06306 421.408C6.65773 421.408 6.33239 421.493 6.08706 421.664C5.85239 421.824 5.73506 422.053 5.73506 422.352C5.73506 422.672 5.88439 422.912 6.18306 423.072C6.49239 423.232 6.87106 423.403 7.31906 423.584L8.66306 424.128C9.29239 424.384 9.79373 424.736 10.1671 425.184C10.5404 425.632 10.7271 426.224 10.7271 426.96C10.7271 427.536 10.5724 428.069 10.2631 428.56C9.95373 429.051 9.50573 429.445 8.91906 429.744C8.33239 430.043 7.62306 430.192 6.79106 430.192Z" fill="#955471"/>
<path d="M16.8497 430.192C15.975 430.192 15.1697 429.989 14.4337 429.584C13.6977 429.179 13.1057 428.581 12.6577 427.792C12.2204 426.992 12.0017 426.011 12.0017 424.848C12.0017 423.696 12.2257 422.715 12.6737 421.904C13.1324 421.083 13.735 420.459 14.4817 420.032C15.239 419.595 16.055 419.376 16.9297 419.376C17.6017 419.376 18.2044 419.515 18.7377 419.792C19.271 420.059 19.7137 420.373 20.0657 420.736L18.8177 422.24C18.551 421.995 18.2684 421.797 17.9697 421.648C17.6817 421.488 17.351 421.408 16.9777 421.408C16.5084 421.408 16.0764 421.541 15.6817 421.808C15.2977 422.075 14.9884 422.459 14.7537 422.96C14.5297 423.461 14.4177 424.064 14.4177 424.768C14.4177 425.835 14.647 426.667 15.1057 427.264C15.5644 427.861 16.1777 428.16 16.9457 428.16C17.3724 428.16 17.751 428.064 18.0817 427.872C18.423 427.68 18.7217 427.451 18.9777 427.184L20.2257 428.656C19.351 429.68 18.2257 430.192 16.8497 430.192Z" fill="#955471"/>
<path d="M24.5411 430.192C23.8584 430.192 23.1757 430.064 22.4931 429.808C21.8211 429.552 21.2184 429.179 20.6851 428.688L22.0291 427.072C22.4024 427.392 22.8184 427.653 23.2771 427.856C23.7357 428.059 24.1784 428.16 24.6051 428.16C25.0957 428.16 25.4584 428.069 25.6931 427.888C25.9384 427.707 26.0611 427.461 26.0611 427.152C26.0611 426.821 25.9224 426.581 25.6451 426.432C25.3784 426.272 25.0157 426.096 24.5571 425.904L23.1971 425.328C22.8451 425.179 22.5091 424.981 22.1891 424.736C21.8691 424.48 21.6077 424.165 21.4051 423.792C21.2024 423.419 21.1011 422.981 21.1011 422.48C21.1011 421.904 21.2557 421.381 21.5651 420.912C21.8851 420.443 22.3224 420.069 22.8771 419.792C23.4424 419.515 24.0877 419.376 24.8131 419.376C25.4104 419.376 26.0077 419.493 26.6051 419.728C27.2024 419.963 27.7251 420.304 28.1731 420.752L26.9731 422.24C26.6317 421.973 26.2904 421.771 25.9491 421.632C25.6077 421.483 25.2291 421.408 24.8131 421.408C24.4077 421.408 24.0824 421.493 23.8371 421.664C23.6024 421.824 23.4851 422.053 23.4851 422.352C23.4851 422.672 23.6344 422.912 23.9331 423.072C24.2424 423.232 24.6211 423.403 25.0691 423.584L26.4131 424.128C27.0424 424.384 27.5437 424.736 27.9171 425.184C28.2904 425.632 28.4771 426.224 28.4771 426.96C28.4771 427.536 28.3224 428.069 28.0131 428.56C27.7037 429.051 27.2557 429.445 26.6691 429.744C26.0824 430.043 25.3731 430.192 24.5411 430.192Z" fill="#955471"/>
<path d="M33.1504 430.192C32.4678 430.192 31.7851 430.064 31.1024 429.808C30.4304 429.552 29.8278 429.179 29.2944 428.688L30.6384 427.072C31.0118 427.392 31.4278 427.653 31.8864 427.856C32.3451 428.059 32.7878 428.16 33.2144 428.16C33.7051 428.16 34.0678 428.069 34.3024 427.888C34.5478 427.707 34.6704 427.461 34.6704 427.152C34.6704 426.821 34.5318 426.581 34.2544 426.432C33.9878 426.272 33.6251 426.096 33.1664 425.904L31.8064 425.328C31.4544 425.179 31.1184 424.981 30.7984 424.736C30.4784 424.48 30.2171 424.165 30.0144 423.792C29.8118 423.419 29.7104 422.981 29.7104 422.48C29.7104 421.904 29.8651 421.381 30.1744 420.912C30.4944 420.443 30.9318 420.069 31.4864 419.792C32.0518 419.515 32.6971 419.376 33.4224 419.376C34.0198 419.376 34.6171 419.493 35.2144 419.728C35.8118 419.963 36.3344 420.304 36.7824 420.752L35.5824 422.24C35.2411 421.973 34.8998 421.771 34.5584 421.632C34.2171 421.483 33.8384 421.408 33.4224 421.408C33.0171 421.408 32.6918 421.493 32.4464 421.664C32.2118 421.824 32.0944 422.053 32.0944 422.352C32.0944 422.672 32.2438 422.912 32.5424 423.072C32.8518 423.232 33.2304 423.403 33.6784 423.584L35.0224 424.128C35.6518 424.384 36.1531 424.736 36.5264 425.184C36.8998 425.632 37.0864 426.224 37.0864 426.96C37.0864 427.536 36.9318 428.069 36.6224 428.56C36.3131 429.051 35.8651 429.445 35.2784 429.744C34.6918 430.043 33.9824 430.192 33.1504 430.192Z" fill="#955471"/>
<path d="M16.4044 558.192C15.5297 558.192 14.7244 557.989 13.9884 557.584C13.2524 557.179 12.6604 556.581 12.2124 555.792C11.775 554.992 11.5564 554.011 11.5564 552.848C11.5564 551.696 11.7804 550.715 12.2284 549.904C12.687 549.083 13.2897 548.459 14.0364 548.032C14.7937 547.595 15.6097 547.376 16.4844 547.376C17.1564 547.376 17.759 547.515 18.2924 547.792C18.8257 548.059 19.2684 548.373 19.6204 548.736L18.3724 550.24C18.1057 549.995 17.823 549.797 17.5244 549.648C17.2364 549.488 16.9057 549.408 16.5324 549.408C16.063 549.408 15.631 549.541 15.2364 549.808C14.8524 550.075 14.543 550.459 14.3084 550.96C14.0844 551.461 13.9724 552.064 13.9724 552.768C13.9724 553.835 14.2017 554.667 14.6604 555.264C15.119 555.861 15.7324 556.16 16.5004 556.16C16.927 556.16 17.3057 556.064 17.6364 555.872C17.9777 555.68 18.2764 555.451 18.5324 555.184L19.7804 556.656C18.9057 557.68 17.7804 558.192 16.4044 558.192Z" fill="#955471"/>
<path d="M24.0957 558.192C23.4131 558.192 22.7304 558.064 22.0477 557.808C21.3757 557.552 20.7731 557.179 20.2397 556.688L21.5837 555.072C21.9571 555.392 22.3731 555.653 22.8317 555.856C23.2904 556.059 23.7331 556.16 24.1597 556.16C24.6504 556.16 25.0131 556.069 25.2477 555.888C25.4931 555.707 25.6157 555.461 25.6157 555.152C25.6157 554.821 25.4771 554.581 25.1997 554.432C24.9331 554.272 24.5704 554.096 24.1117 553.904L22.7517 553.328C22.3997 553.179 22.0637 552.981 21.7437 552.736C21.4237 552.48 21.1624 552.165 20.9597 551.792C20.7571 551.419 20.6557 550.981 20.6557 550.48C20.6557 549.904 20.8104 549.381 21.1197 548.912C21.4397 548.443 21.8771 548.069 22.4317 547.792C22.9971 547.515 23.6424 547.376 24.3677 547.376C24.9651 547.376 25.5624 547.493 26.1597 547.728C26.7571 547.963 27.2797 548.304 27.7277 548.752L26.5277 550.24C26.1864 549.973 25.8451 549.771 25.5037 549.632C25.1624 549.483 24.7837 549.408 24.3677 549.408C23.9624 549.408 23.6371 549.493 23.3917 549.664C23.1571 549.824 23.0397 550.053 23.0397 550.352C23.0397 550.672 23.1891 550.912 23.4877 551.072C23.7971 551.232 24.1757 551.403 24.6237 551.584L25.9677 552.128C26.5971 552.384 27.0984 552.736 27.4717 553.184C27.8451 553.632 28.0317 554.224 28.0317 554.96C28.0317 555.536 27.8771 556.069 27.5677 556.56C27.2584 557.051 26.8104 557.445 26.2237 557.744C25.6371 558.043 24.9277 558.192 24.0957 558.192Z" fill="#955471"/>
<path d="M32.7051 558.192C32.0225 558.192 31.3398 558.064 30.6571 557.808C29.9851 557.552 29.3825 557.179 28.8491 556.688L30.1931 555.072C30.5665 555.392 30.9825 555.653 31.4411 555.856C31.8998 556.059 32.3425 556.16 32.7691 556.16C33.2598 556.16 33.6225 556.069 33.8571 555.888C34.1025 555.707 34.2251 555.461 34.2251 555.152C34.2251 554.821 34.0865 554.581 33.8091 554.432C33.5425 554.272 33.1798 554.096 32.7211 553.904L31.3611 553.328C31.0091 553.179 30.6731 552.981 30.3531 552.736C30.0331 552.48 29.7718 552.165 29.5691 551.792C29.3665 551.419 29.2651 550.981 29.2651 550.48C29.2651 549.904 29.4198 549.381 29.7291 548.912C30.0491 548.443 30.4865 548.069 31.0411 547.792C31.6065 547.515 32.2518 547.376 32.9771 547.376C33.5745 547.376 34.1718 547.493 34.7691 547.728C35.3665 547.963 35.8891 548.304 36.3371 548.752L35.1371 550.24C34.7958 549.973 34.4545 549.771 34.1131 549.632C33.7718 549.483 33.3931 549.408 32.9771 549.408C32.5718 549.408 32.2465 549.493 32.0011 549.664C31.7665 549.824 31.6491 550.053 31.6491 550.352C31.6491 550.672 31.7985 550.912 32.0971 551.072C32.4065 551.232 32.7851 551.403 33.2331 551.584L34.5771 552.128C35.2065 552.384 35.7078 552.736 36.0811 553.184C36.4545 553.632 36.6411 554.224 36.6411 554.96C36.6411 555.536 36.4865 556.069 36.1771 556.56C35.8678 557.051 35.4198 557.445 34.8331 557.744C34.2465 558.043 33.5371 558.192 32.7051 558.192Z" fill="#955471"/>
<path d="M7.95862 170V159.568H10.3106V168.016H14.4386V170H7.95862Z" fill="#357F8C"/>
<path d="M16.2399 170V159.568H22.7679V161.552H18.5919V163.648H22.1439V165.616H18.5919V168.016H22.9279V170H16.2399Z" fill="#357F8C"/>
<path d="M28.1895 170.192C27.5068 170.192 26.8242 170.064 26.1415 169.808C25.4695 169.552 24.8668 169.179 24.3335 168.688L25.6775 167.072C26.0508 167.392 26.4668 167.653 26.9255 167.856C27.3842 168.059 27.8268 168.16 28.2535 168.16C28.7442 168.16 29.1068 168.069 29.3415 167.888C29.5868 167.707 29.7095 167.461 29.7095 167.152C29.7095 166.821 29.5708 166.581 29.2935 166.432C29.0268 166.272 28.6642 166.096 28.2055 165.904L26.8455 165.328C26.4935 165.179 26.1575 164.981 25.8375 164.736C25.5175 164.48 25.2562 164.165 25.0535 163.792C24.8508 163.419 24.7495 162.981 24.7495 162.48C24.7495 161.904 24.9042 161.381 25.2135 160.912C25.5335 160.443 25.9708 160.069 26.5255 159.792C27.0908 159.515 27.7362 159.376 28.4615 159.376C29.0588 159.376 29.6562 159.493 30.2535 159.728C30.8508 159.963 31.3735 160.304 31.8215 160.752L30.6215 162.24C30.2802 161.973 29.9388 161.771 29.5975 161.632C29.2562 161.483 28.8775 161.408 28.4615 161.408C28.0562 161.408 27.7308 161.493 27.4855 161.664C27.2508 161.824 27.1335 162.053 27.1335 162.352C27.1335 162.672 27.2828 162.912 27.5815 163.072C27.8908 163.232 28.2695 163.403 28.7175 163.584L30.0615 164.128C30.6908 164.384 31.1922 164.736 31.5655 165.184C31.9388 165.632 32.1255 166.224 32.1255 166.96C32.1255 167.536 31.9708 168.069 31.6615 168.56C31.3522 169.051 30.9042 169.445 30.3175 169.744C29.7308 170.043 29.0215 170.192 28.1895 170.192Z" fill="#357F8C"/>
<path d="M36.7989 170.192C36.1162 170.192 35.4335 170.064 34.7509 169.808C34.0789 169.552 33.4762 169.179 32.9429 168.688L34.2869 167.072C34.6602 167.392 35.0762 167.653 35.5349 167.856C35.9935 168.059 36.4362 168.16 36.8629 168.16C37.3535 168.16 37.7162 168.069 37.9509 167.888C38.1962 167.707 38.3189 167.461 38.3189 167.152C38.3189 166.821 38.1802 166.581 37.9029 166.432C37.6362 166.272 37.2735 166.096 36.8149 165.904L35.4549 165.328C35.1029 165.179 34.7669 164.981 34.4469 164.736C34.1269 164.48 33.8655 164.165 33.6629 163.792C33.4602 163.419 33.3589 162.981 33.3589 162.48C33.3589 161.904 33.5135 161.381 33.8229 160.912C34.1429 160.443 34.5802 160.069 35.1349 159.792C35.7002 159.515 36.3455 159.376 37.0709 159.376C37.6682 159.376 38.2655 159.493 38.8629 159.728C39.4602 159.963 39.9829 160.304 40.4309 160.752L39.2309 162.24C38.8895 161.973 38.5482 161.771 38.2069 161.632C37.8655 161.483 37.4869 161.408 37.0709 161.408C36.6655 161.408 36.3402 161.493 36.0949 161.664C35.8602 161.824 35.7429 162.053 35.7429 162.352C35.7429 162.672 35.8922 162.912 36.1909 163.072C36.5002 163.232 36.8789 163.403 37.3269 163.584L38.6709 164.128C39.3002 164.384 39.8015 164.736 40.1749 165.184C40.5482 165.632 40.7349 166.224 40.7349 166.96C40.7349 167.536 40.5802 168.069 40.2709 168.56C39.9615 169.051 39.5135 169.445 38.9269 169.744C38.3402 170.043 37.6309 170.192 36.7989 170.192Z" fill="#357F8C"/>
</svg>
